<svg width="16" height="22" viewBox="0 0 16 22" fill="none" xmlns="http://www.w3.org/2000/svg">
<path d="M8.07812 22C7.31844 22 6.70312 21.3847 6.70312 20.625C6.70312 19.8653 7.31844 19.25 8.07812 19.25C8.83781 19.25 9.45312 19.8653 9.45312 20.625C9.45312 21.3847 8.83781 22 8.07812 22Z" fill="white"/>
<path fill-rule="evenodd" clip-rule="evenodd" d="M8.06258 21.3123C8.15414 21.3144 8.24518 21.2982 8.33037 21.2646C8.41556 21.231 8.49318 21.1807 8.55867 21.1167C8.62416 21.0526 8.67621 20.9762 8.71174 20.8918C8.74728 20.8074 8.7656 20.7168 8.76562 20.6252C8.76565 20.5336 8.74737 20.4429 8.71188 20.3585C8.67638 20.2741 8.62438 20.1976 8.55892 20.1336C8.49346 20.0695 8.41587 20.0192 8.33069 19.9856C8.24552 19.9519 8.15448 19.9356 8.06293 19.9377C7.8833 19.9416 7.71236 20.0158 7.5867 20.1442C7.46105 20.2726 7.39067 20.4452 7.39063 20.6248C7.39058 20.8045 7.46088 20.9771 7.58646 21.1055C7.71205 21.234 7.88295 21.3083 8.06258 21.3123V21.3123Z" fill="#FD8001"/>
<circle cx="7.90625" cy="8.07812" r="4.98438" fill="white"/>
<path d="M5.2966 10.6949C5.0887 10.7014 5.07268 10.7035 5.02699 10.7572C4.96992 10.8281 4.96992 10.8711 5.02925 10.9441C5.05816 10.9795 5.10143 11 5.14712 11H7.90625H10.6654C10.7111 11 10.7543 10.9795 10.7833 10.9441L5.2966 10.6949ZM5.2966 10.6949L5.2966 10.6949L5.2966 10.6949ZM5.2966 10.6949C5.42005 10.6913 5.51826 10.5902 5.51826 10.4667V8.07812V5.6896C5.51826 5.56609 5.42005 5.46497 5.2966 5.46137V10.6949ZM4.95085 5.46383L4.95083 5.46385L4.94919 5.46182C4.91669 5.42157 4.88375 5.37001 4.88438 5.30543C4.88501 5.24149 4.91838 5.18996 4.95168 5.14903L4.95182 5.14885C4.99973 5.09025 5.07143 5.05625 5.14712 5.05625H7.90625H10.6654C10.7411 5.05625 10.8128 5.09025 10.8607 5.14885L10.7833 5.21214L10.8608 5.14905C10.8941 5.18999 10.9274 5.24149 10.928 5.30539C10.9287 5.36989 10.8958 5.42144 10.8634 5.46175L10.8634 5.46177L10.8617 5.46375C10.8495 5.47813 10.8331 5.49669 10.8109 5.51231C10.7869 5.5292 10.7613 5.5392 10.7336 5.54547C10.6864 5.55611 10.6188 5.55821 10.5214 5.56125L10.519 5.56132L10.5188 5.56132C10.4494 5.56335 10.3942 5.62018 10.3942 5.68959V8.07812V10.4667C10.3942 10.5361 10.4494 10.5929 10.5188 10.5949L10.5159 10.6949L10.519 10.5949L10.5205 10.595C10.6185 10.598 10.6863 10.6001 10.7336 10.6108C10.7614 10.6171 10.7869 10.6271 10.8109 10.644C10.833 10.6596 10.8494 10.6781 10.8616 10.6924L10.8617 10.6924L10.8633 10.6944C10.8958 10.7347 10.9287 10.7862 10.9281 10.8508C10.9275 10.9148 10.8941 10.9663 10.8608 11.0072L10.8607 11.0074C10.8128 11.066 10.7411 11.1 10.6654 11.1H7.90625H5.14712C5.07142 11.1 4.99973 11.066 4.95182 11.0074L4.95182 11.0074L4.95166 11.0072C4.91837 10.9663 4.8851 10.9148 4.88447 10.8509C4.88384 10.7864 4.91665 10.7348 4.94912 10.6945L4.9491 10.6945L4.95079 10.6925C4.963 10.6781 4.97941 10.6596 5.00162 10.6439C5.02562 10.627 5.05116 10.6171 5.07894 10.6108C5.12607 10.6001 5.19367 10.598 5.29114 10.595L5.29349 10.5949L5.29368 10.5949C5.36307 10.5929 5.41826 10.5361 5.41826 10.4667V8.07812V5.6896C5.41826 5.62018 5.36307 5.56335 5.29368 5.56132L5.29349 5.56132L5.29201 5.56127C5.19403 5.55822 5.12619 5.55611 5.07891 5.54542C5.05113 5.53914 5.02562 5.52914 5.00164 5.51228C4.97946 5.49669 4.96306 5.47817 4.95085 5.46383ZM7.72348 6.15305L7.72338 6.15295L8.20721 10.4078C8.20721 10.4078 8.20721 10.4079 8.20722 10.408C8.21057 10.5026 8.28826 10.5776 8.38297 10.5776H9.03961C9.49425 10.5776 9.86281 10.209 9.86281 9.75439V8.07812V6.42691C9.86281 5.95837 9.48299 5.57855 9.01445 5.57855H8.34544C8.24639 5.57855 8.16609 5.65884 8.16609 5.75789C8.16609 5.88336 8.16526 5.96315 8.1569 6.01603C8.15233 6.04489 8.14468 6.07249 8.12984 6.09846C8.11499 6.12447 8.09665 6.14214 8.08253 6.15475L8.0817 6.15549C7.98149 6.24306 7.82277 6.24639 7.72348 6.15305Z" fill="#FD8001" stroke="#FD8001" stroke-width="0.2"/>
<path d="M7.83126 6.54093C7.79926 6.55126 7.5319 6.73158 7.23813 6.94085C6.77302 7.27437 6.70328 7.33452 6.70328 7.39046C6.70328 7.45674 6.77891 7.52926 6.85741 7.5355C6.97667 7.54798 7.03766 7.51688 7.35739 7.2931L7.70038 7.0507V8.07C7.70038 8.63151 7.69162 9.08942 7.68 9.08942C7.66837 9.08942 7.5085 8.98172 7.32237 8.85111C6.959 8.59622 6.90089 8.57557 6.76713 8.65013C6.72351 8.67713 6.70312 8.71231 6.70312 8.75578C6.70312 8.81377 6.77 8.86972 7.23798 9.20949C7.5316 9.42295 7.80197 9.6052 7.83971 9.61564C7.88047 9.62812 7.92697 9.62812 7.9706 9.61564C8.00547 9.60531 8.27584 9.42295 8.56946 9.20949C9.03744 8.86972 9.10432 8.81377 9.10432 8.75578C9.10432 8.71221 9.08394 8.67702 9.04031 8.65013C8.90656 8.57557 8.84844 8.59622 8.48507 8.85111C8.29909 8.98161 8.13907 9.08942 8.1276 9.08942C8.11597 9.08942 8.10722 8.62947 8.10722 8.07V7.04854L8.43571 7.28062C8.61309 7.40703 8.79032 7.52097 8.82821 7.53334C8.9677 7.58509 9.1567 7.45254 9.09858 7.34485C9.06371 7.28266 8.02298 6.54717 7.94735 6.53469C7.91565 6.52856 7.86326 6.53061 7.83126 6.54093Z" fill="#FD8001"/>
<path d="M8.17739 17.711C8.17533 17.7552 8.1561 17.7969 8.12371 17.8275C8.09131 17.858 8.04825 17.875 8.00348 17.875C7.90261 17.875 7.82609 17.8028 7.82261 17.711C7.30435 16.1563 7.21183 15.9177 6.14191 15.598C2.61913 14.7702 0 11.6404 0 7.90625C0 3.53959 3.58156 0 8 0C12.4184 0 16 3.53959 16 7.90625C16 11.6404 13.3809 14.7702 9.85809 15.598C8.78817 15.9177 8.69496 16.1563 8.17739 17.711Z" fill="#FD8001"/>
<path d="M8.17255 22C7.40386 22 6.78125 21.3847 6.78125 20.625C6.78125 19.8653 7.40386 19.25 8.17255 19.25C8.94125 19.25 9.56386 19.8653 9.56386 20.625C9.56386 21.3847 8.94125 22 8.17255 22Z" fill="white"/>
<path fill-rule="evenodd" clip-rule="evenodd" d="M8.15844 21.3123C8.25108 21.3144 8.3432 21.2982 8.42941 21.2646C8.51561 21.231 8.59415 21.1807 8.66041 21.1167C8.72668 21.0526 8.77934 20.9762 8.8153 20.8918C8.85126 20.8074 8.8698 20.7168 8.86982 20.6252C8.86984 20.5336 8.85135 20.4429 8.81544 20.3585C8.77952 20.2741 8.7269 20.1976 8.66066 20.1336C8.59443 20.0695 8.51591 20.0192 8.42973 19.9856C8.34355 19.9519 8.25143 19.9356 8.15879 19.9377C7.97703 19.9416 7.80406 20.0158 7.67692 20.1442C7.54978 20.2726 7.47856 20.4452 7.47852 20.6248C7.47847 20.8045 7.5496 20.9771 7.67668 21.1055C7.80376 21.234 7.97668 21.3083 8.15844 21.3123V21.3123Z" fill="#FD8001"/>
<ellipse cx="8.00051" cy="8.07812" rx="5.04348" ry="4.98437" fill="white"/>
<path d="M11.9307 6.61984L11.0992 5.90794C11.052 5.87143 10.9856 5.83968 10.917 5.81587C10.8477 5.79206 10.7763 5.77778 10.7184 5.77778H8.50028V7.68413L10.7177 7.72222C10.7749 7.72222 10.847 7.70794 10.9156 7.68413C10.9849 7.66032 11.0513 7.62778 11.0978 7.59206L11.9293 6.87937C11.9764 6.84365 12 6.79683 12 6.74921C12 6.70159 11.9771 6.65556 11.9307 6.61984ZM7.9753 5H7.62527C7.52883 5 7.45025 5.0873 7.45025 5.19444V6.55556H6.28227C6.22441 6.55556 6.15298 6.56984 6.08368 6.59444C6.01439 6.61746 5.94795 6.65 5.90152 6.68651L5.07001 7.39762C5.02286 7.43333 5 7.48016 5 7.52778C5 7.5746 5.02286 7.62222 5.07001 7.65794L5.90152 8.37063C5.94867 8.40635 6.01439 8.43889 6.08368 8.4619C6.15298 8.48571 6.2237 8.5 6.28227 8.5H7.45025V11.8056C7.45025 11.9127 7.52883 12 7.62527 12H7.9753C8.07174 12 8.15032 11.9127 8.15032 11.8056V5.19444C8.15032 5.0873 8.07174 5 7.9753 5Z" fill="#FD8001"/>
</svg>
