<svg width="40" height="40" viewBox="0 0 40 40" fill="none" xmlns="http://www.w3.org/2000/svg">
<path d="M19.3104 31.3968C19.3068 31.4752 19.2732 31.5491 19.2165 31.6033C19.1598 31.6574 19.0844 31.6876 19.0061 31.6875C18.8296 31.6875 18.6957 31.5595 18.6896 31.3968C17.7826 28.6406 17.6207 28.2177 15.7483 27.651C9.58348 26.1836 5 20.6353 5 14.0156C5 6.27473 11.2677 0 19 0C26.7323 0 33 6.27473 33 14.0156C33 20.6353 28.4165 26.1836 22.2517 27.651C20.3793 28.2177 20.2174 28.6406 19.3117 31.3968H19.3104Z" fill="#E84A06"/>
<path d="M19.3044 39C17.9592 39 16.8696 37.9092 16.8696 36.5625C16.8696 35.2158 17.9592 34.125 19.3044 34.125C20.6496 34.125 21.7392 35.2158 21.7392 36.5625C21.7392 37.9092 20.6496 39 19.3044 39Z" fill="white"/>
<path fill-rule="evenodd" clip-rule="evenodd" d="M19.2768 37.7805C19.4389 37.7841 19.6001 37.7553 19.751 37.6958C19.9018 37.6362 20.0393 37.5471 20.1552 37.4336C20.2712 37.3201 20.3634 37.1846 20.4263 37.035C20.4892 36.8854 20.5217 36.7247 20.5217 36.5623C20.5217 36.4 20.4894 36.2393 20.4265 36.0896C20.3637 35.94 20.2716 35.8044 20.1557 35.6909C20.0398 35.5773 19.9024 35.4881 19.7515 35.4285C19.6007 35.3688 19.4395 35.34 19.2774 35.3436C18.9593 35.3506 18.6566 35.482 18.4341 35.7097C18.2116 35.9374 18.087 36.2432 18.0869 36.5617C18.0868 36.8802 18.2113 37.1861 18.4337 37.4139C18.6561 37.6417 18.9587 37.7732 19.2768 37.7805V37.7805Z" fill="#E84A06"/>
<circle cx="19" cy="14" r="10" fill="#FCFCFD"/>
<circle cx="19" cy="14" r="7" fill="#217BF4"/>
</svg>
