<svg width="40" height="40" viewBox="0 0 40 40" fill="none" xmlns="http://www.w3.org/2000/svg">
<circle cx="14.113" cy="14.6887" r="9.06323" fill="white"/>
<path d="M8.80116 9.88185L8.80113 9.88187L8.79949 9.87984C8.74359 9.8106 8.69895 9.73576 8.69982 9.64767C8.70067 9.56022 8.74621 9.48496 8.80383 9.41413L8.80397 9.41396C8.87554 9.3264 8.98265 9.27561 9.09573 9.27561H14.1127H19.1297C19.2428 9.27561 19.3499 9.3264 19.4215 9.41395L19.3441 9.47724L19.4216 9.41415C19.4792 9.48494 19.5246 9.56018 19.5255 9.6476C19.5263 9.73561 19.4819 9.81047 19.426 9.87976L19.4261 9.87978L19.4244 9.88177C19.4028 9.90715 19.3786 9.93406 19.3472 9.95612C19.3141 9.97944 19.2781 9.99395 19.2357 10.0035C19.159 10.0208 19.0448 10.0246 18.861 10.0304L18.8608 10.0304C18.6904 10.0353 18.5549 10.1749 18.5549 10.3454V14.6885V19.0317C18.5549 19.2022 18.6904 19.3417 18.8608 19.3467L18.8579 19.4467L18.861 19.3467C19.0449 19.3524 19.159 19.3563 19.2357 19.3736C19.2781 19.3832 19.3141 19.3977 19.3472 19.421C19.3785 19.4431 19.4027 19.4699 19.4243 19.4952L19.4243 19.4952L19.426 19.4972C19.4819 19.5665 19.5265 19.6413 19.5256 19.7294C19.5248 19.8169 19.4793 19.8921 19.4216 19.9629L19.4215 19.9631C19.3499 20.0507 19.2428 20.1015 19.1297 20.1015H14.1127H9.09573C8.98265 20.1015 8.87554 20.0507 8.80397 19.9631L8.80397 19.9631L8.80382 19.9629C8.74625 19.8921 8.70084 19.8169 8.69998 19.7295C8.69912 19.6415 8.7436 19.5666 8.79943 19.4973L8.7994 19.4973L8.80109 19.4953C8.82266 19.4699 8.84689 19.443 8.87825 19.421C8.91139 19.3976 8.94739 19.3831 8.98978 19.3736C9.06651 19.3562 9.18062 19.3524 9.36442 19.3467L9.36461 19.3467C9.53502 19.3417 9.67059 19.2022 9.67059 19.0317V14.6885V10.3454C9.67059 10.1749 9.53502 10.0353 9.36461 10.0304L9.36442 10.0304C9.18058 10.0246 9.06649 10.0208 8.98975 10.0034C8.94736 9.99385 8.91139 9.97934 8.87827 9.95606C8.84694 9.93403 8.82271 9.90717 8.80116 9.88185ZM13.8364 11.1285L13.8363 11.1284L14.4782 18.9308L14.5782 18.9274C14.5782 18.9275 14.5782 18.9275 14.5782 18.9276C14.5857 19.1438 14.7632 19.3152 14.9796 19.3152H16.1735H16.8522C17.3493 19.3152 17.7522 18.9123 17.7522 18.4152V14.6885V10.9617C17.7522 10.4646 17.3493 10.0617 16.8522 10.0617H16.1278H14.9113C14.686 10.0617 14.5034 10.2443 14.5034 10.4696C14.5034 10.7006 14.5016 10.8379 14.4877 10.9262C14.4803 10.9727 14.4687 11.0125 14.4482 11.0483C14.4278 11.0841 14.4022 11.1092 14.3787 11.1302L14.3779 11.1309C14.2254 11.2642 13.9844 11.2676 13.8364 11.1285Z" fill="#283244" stroke="#283244" stroke-width="0.2"/>
<path d="M13.9761 11.8936C13.9179 11.9124 13.4318 12.2403 12.8976 12.6208C12.0519 13.2273 11.9251 13.3366 11.9251 13.4383C11.9251 13.5589 12.0626 13.6907 12.2053 13.7021C12.4222 13.7248 12.5331 13.6682 13.1145 13.2613L13.7381 12.8205V14.674C13.7381 15.695 13.7222 16.5276 13.7011 16.5276C13.6799 16.5276 13.3892 16.3318 13.0508 16.0943C12.3901 15.6308 12.2844 15.5933 12.0412 15.7288C11.9619 15.7779 11.9248 15.8419 11.9248 15.9209C11.9248 16.0264 12.0464 16.1281 12.8973 16.7459C13.4312 17.1341 13.9229 17.4655 13.9915 17.4844C14.0656 17.5071 14.1502 17.5071 14.2295 17.4844C14.2929 17.4657 14.7845 17.1341 15.3184 16.7459C16.1694 16.1281 16.291 16.0264 16.291 15.9209C16.291 15.8417 16.2539 15.7777 16.1746 15.7288C15.9314 15.5933 15.8257 15.6308 15.165 16.0943C14.8268 16.3316 14.5358 16.5276 14.515 16.5276C14.4938 16.5276 14.4779 15.6913 14.4779 14.674V12.8166L15.0752 13.2386C15.3977 13.4685 15.72 13.6757 15.7889 13.6981C16.0425 13.7922 16.3862 13.5512 16.2805 13.3554C16.2171 13.2423 14.3247 11.905 14.1872 11.8823C14.1296 11.8711 14.0343 11.8748 13.9761 11.8936Z" fill="#283244"/>
<path d="M19.8692 32.2045C19.8654 32.2848 19.8305 32.3607 19.7716 32.4162C19.7127 32.4717 19.6344 32.5027 19.5529 32.5026C19.3695 32.5026 19.2304 32.3713 19.2241 32.2045C18.2817 29.3774 18.1135 28.9436 16.168 28.3623C9.76244 26.8571 5 21.1661 5 14.3762C5 6.43614 11.5125 0 19.5466 0C27.5808 0 34.0932 6.43614 34.0932 14.3762C34.0932 21.1661 29.3308 26.8571 22.9252 28.3623C20.9798 28.9436 20.8103 29.3774 19.8692 32.2045Z" fill="#217BF4"/>
<path d="M19.8384 39.8749C18.4407 39.8749 17.3086 38.7561 17.3086 37.3747C17.3086 35.9934 18.4407 34.8745 19.8384 34.8745C21.2362 34.8745 22.3683 35.9934 22.3683 37.3747C22.3683 38.7561 21.2362 39.8749 19.8384 39.8749Z" fill="white"/>
<path fill-rule="evenodd" clip-rule="evenodd" d="M19.8125 38.6244C19.9809 38.6282 20.1485 38.5986 20.3052 38.5375C20.4619 38.4764 20.6048 38.385 20.7252 38.2686C20.8457 38.1522 20.9415 38.0132 21.0069 37.8597C21.0723 37.7063 21.106 37.5414 21.106 37.3749C21.1061 37.2084 21.0724 37.0436 21.0071 36.8901C20.9418 36.7366 20.8461 36.5975 20.7257 36.4811C20.6053 36.3646 20.4625 36.2731 20.3058 36.2119C20.1491 36.1508 19.9816 36.1211 19.8131 36.1248C19.4826 36.132 19.1681 36.2668 18.9369 36.5004C18.7057 36.7339 18.5763 37.0476 18.5762 37.3743C18.5761 37.701 18.7054 38.0148 18.9365 38.2484C19.1676 38.482 19.482 38.617 19.8125 38.6244V38.6244Z" fill="#217BF4"/>
<ellipse cx="19.5476" cy="14.6887" rx="9.17069" ry="9.06322" fill="white"/>
<path d="M14.9372 9.01738C14.8543 9.1056 14.8479 9.1308 14.8352 9.69795C14.8224 10.076 14.8352 10.3344 14.8671 10.4289C14.9436 10.6684 14.9563 10.6747 16.627 10.6747C17.9789 10.6747 18.1 10.681 18.1574 10.7377C18.2595 10.8511 18.2531 11.0087 18.1447 11.1158C18.0745 11.1851 18.0235 11.1914 16.6525 11.1914H15.2369L15.2178 11.3049C15.2114 11.3679 15.1859 11.7208 15.1604 12.08C15.001 14.6321 14.408 16.9637 13.5662 18.369L13.3367 18.7534L12.8074 18.7723L12.2781 18.7912L12.1506 18.9235C12.0103 19.081 11.9848 19.2449 12.0805 19.4276C12.2016 19.6545 11.6405 19.6356 19.5476 19.6356C27.4546 19.6356 26.8935 19.6545 27.0146 19.415C27.1103 19.2323 27.0848 19.0684 26.9445 18.9109L26.817 18.7786L26.3515 18.766L25.886 18.7534V15.6971V12.6408H23.6541H21.4223L21.4414 12.7542C21.4542 12.8172 21.4797 13.0252 21.5052 13.2079L21.5498 13.5482H22.1301H22.7168V14.1343V14.7203H22.2576C21.8432 14.7203 21.7985 14.7266 21.7985 14.7833C21.7985 14.8212 21.8559 15.0354 21.9133 15.2686L22.0345 15.6908L22.3788 15.7034L22.7168 15.716V16.2957V16.8818H22.6084C22.551 16.8818 22.4999 16.9007 22.4999 16.9196C22.4999 16.9763 22.8443 17.6506 23.0228 17.9278C23.1057 18.0665 23.2779 18.3122 23.4118 18.4761L23.6478 18.7786H23.2652H22.8826L22.6594 18.4383C21.5562 16.7936 20.8867 14.2855 20.7081 11.141L20.689 10.6999L20.8229 10.6747C21.0971 10.6243 21.1035 10.5928 21.1035 9.79877V9.07409L21.0078 8.99847C20.9058 8.92285 20.8867 8.92285 17.9661 8.92285H15.0201L14.9372 9.01738ZM24.8912 14.1343V14.7203H24.2982H23.7051V14.1343V13.5482H24.2982H24.8912V14.1343ZM24.8912 16.2831V16.8692H24.2982H23.7051V16.2831V15.6971H24.2982H24.8912V16.2831Z" fill="#217BF4"/>
</svg>
