<svg width="200" height="231" viewBox="0 0 200 231" fill="none" xmlns="http://www.w3.org/2000/svg">
<path fill-rule="evenodd" clip-rule="evenodd" d="M22.4644 70.3815L0.288018 57.4213V96.686L22.0804 108.878L22.4644 70.3815ZM176.259 122.031V186.352L199.972 172.528V108.398L176.259 122.127V122.031ZM176.259 83.1498L143.619 101.966V205.264L166.467 192.016V115.214L199.972 96.8781V57.4213L176.259 71.1496V83.1498ZM100.13 165.999V191.632L133.155 172.624V146.991L100.226 165.999H100.13ZM100.13 230.321L133.059 211.312L133.155 184.912L100.034 204.016L88.7057 197.488V159.951L0.192017 108.878V134.031L65.8573 171.951V210.64L99.9379 230.321H100.13ZM100.13 86.8939L112.322 93.902L124.514 100.91V115.022V129.135L112.322 136.143L100.13 143.151L87.9377 136.143L75.7455 129.135V115.022V100.91L87.9377 93.902L100.13 86.8939ZM32.4486 115.598L55.1051 127.887V89.4859L32.8326 76.8137L32.3526 115.598H32.4486ZM0.288018 172.528L55.5851 204.88L55.8731 178.768L0.288018 147.087V172.528Z" fill="#FEFEFE"/>
<path fill-rule="evenodd" clip-rule="evenodd" d="M45.2169 31.5008L67.5853 44.461L122.498 12.7804L100.13 -0.17981L45.2169 31.5008ZM100.034 86.7019L124.418 101.102L100.034 115.118L75.5535 101.102L99.9379 86.7019H100.034ZM110.69 69.3255L145.059 89.1019L165.795 77.1017L131.427 57.3253L110.69 69.3255ZM176.259 71.1496L199.972 57.4213L165.603 37.6449L141.891 51.3732L176.259 71.1496ZM0.384033 57.4213L22.5605 70.3815L32.5446 64.6214L65.2813 83.5338L155.331 31.5968L132.867 18.6366L66.0493 57.2293L33.5047 38.4129L0.480035 57.4213H0.384033Z" fill="#9DB1F5"/>
</svg>
