<svg width="512" height="512" viewBox="0 0 512 512" fill="none" xmlns="http://www.w3.org/2000/svg">
<path d="M361.279 336.497C278.233 336.497 232.023 403.581 213.697 403.581C206.32 403.581 210.287 385.54 212.164 379.818C214.864 371.713 208.824 363.331 200.281 363.331C188.948 363.331 180.215 373.561 168.13 387.72C158.178 399.379 143.14 416.998 133.198 416.998C117.044 416.998 139.727 364.036 144.401 354.626C145.356 352.716 145.806 350.594 145.71 348.461C145.614 346.328 144.975 344.255 143.852 342.439C142.73 340.623 141.162 339.124 139.297 338.084C137.432 337.044 135.333 336.498 133.198 336.498C120.95 336.498 113.045 349.187 84.7569 397.7C73.5697 416.887 60.8886 438.634 49.3606 455.672C36.702 474.381 29.7686 480.876 26.7073 483.098C23.3244 473.58 23.818 443.124 40.6928 385.741C55.0991 336.751 75.6039 290.168 88.3878 277.382C93.2795 272.49 93.2795 264.56 88.3878 259.668C83.4968 254.777 75.5655 254.777 70.6737 259.668C51.9109 278.431 30.9326 331.891 18.6698 371.97C-7.47991 457.426 -7.12334 509.132 25.8647 509.132C45.9586 509.132 66.106 479.184 103.251 415.707C105.694 433.429 117.99 442.049 133.197 442.049C153.836 442.049 171.266 422.592 185.435 406.03C186.757 412.011 192.227 428.632 213.697 428.632C248.627 428.632 283.605 361.549 361.279 361.549C368.196 361.549 373.805 355.941 373.805 349.023C373.805 342.106 368.196 336.497 361.279 336.497Z" fill="black"/>
<path d="M512 130.188L403.106 21L344.722 79.5403L241.281 141.245L187.637 331.029L179 339.689L177.5 357H196.264L204.864 348.377L396.135 293.087L453.756 188.588L512 130.188ZM403.106 55.622L477.472 130.188L443.906 163.844L369.54 89.2774L403.106 55.622ZM379.374 272.89L239.109 314.193L310.097 243.099L334.993 242.996L334.514 200.777L292.584 201.256L292.688 225.935L222.212 296.516L261.65 157.581L350.357 104.666L428.776 183.296L379.374 272.89Z" fill="black"/>
</svg>
