<svg width="448" height="304" viewBox="0 0 448 304" fill="none" xmlns="http://www.w3.org/2000/svg">
<path d="M433 96.8655C333.55 96.8655 278.213 177.2 256.267 177.2C247.433 177.2 252.183 155.596 254.431 148.743C257.665 139.038 250.431 129 240.201 129C226.629 129 216.172 141.251 201.699 158.206C189.782 172.168 171.773 193.267 159.867 193.267C140.522 193.267 167.686 129.844 173.283 118.575C174.426 116.288 174.966 113.746 174.851 111.192C174.736 108.638 173.97 106.156 172.626 103.981C171.282 101.806 169.404 100.01 167.171 98.7654C164.938 97.5203 162.424 96.8666 159.867 96.8665C145.2 96.8665 135.734 112.062 101.858 170.158C88.461 193.135 73.275 219.177 59.47 239.58C44.311 261.985 36.008 269.763 32.342 272.424C28.291 261.026 28.882 224.554 49.09 155.836C66.342 97.1695 90.897 41.3845 106.206 26.0735C112.064 20.2155 112.064 10.7185 106.206 4.86052C100.349 -0.996477 90.851 -0.996477 84.993 4.86052C62.524 27.3295 37.402 91.3495 22.717 139.345C-8.598 241.681 -8.17101 303.6 31.333 303.6C55.396 303.6 79.523 267.737 124.005 191.721C126.931 212.944 141.655 223.267 159.866 223.267C184.582 223.267 205.455 199.967 222.423 180.133C224.006 187.295 230.556 207.2 256.267 207.2C298.097 207.2 339.984 126.866 433 126.866C441.284 126.866 448 120.15 448 111.866C448 103.582 441.284 96.8655 433 96.8655Z" fill="black"/>
</svg>
