<?xml version="1.0" ?><svg xmlns="http://www.w3.org/2000/svg" version="1.1" xmlns:xlink="http://www.w3.org/1999/xlink" width="512" height="512" x="0" y="0" viewBox="0 0 463 464" style="enable-background:new 0 0 512 512" xml:space="preserve" class=""><g><path fill="#eaf2ff" d="M355.14 80.238V448c-.027 8.824-7.175 15.973-16 16h-288c-8.828-.027-15.972-7.176-16-16V16c.028-8.824 7.172-15.973 16-16h232v64c.028 8.824 7.173 15.973 16 16h55.758zm0 0" opacity="1" data-original="#e6e7e8" class=""></path><path fill="#ffc477" d="M256.898 316.32a15.94 15.94 0 0 0-4.718-11.28l-38.64-38.642 18.882-3.757 79.2 79.199-11.763 11.762A15.572 15.572 0 0 0 280.5 356a15.838 15.838 0 0 0 0 22.559c-4.586-4.555-11.46-5.907-17.43-3.422a16 16 0 0 0-9.851 14.785 15.873 15.873 0 0 0 4.64 11.277c-6.25-6.25-16.386-6.25-22.64 0-6.25 6.254-6.25 16.39 0 22.64-5.688-5.745-14.77-6.347-21.164-1.398-6.395 4.95-8.09 13.891-3.953 20.84l-6 6c-6.254 6.25-16.391 6.25-22.641 0-6.254-6.254-6.254-16.39 0-22.64a15.956 15.956 0 0 1-11.281 4.718 16.255 16.255 0 0 1-11.36-4.718 15.932 15.932 0 0 1-4.68-11.282c0-4.23 1.684-8.289 4.68-11.28-6.332 5.718-16.035 5.46-22.054-.579-6.024-6.043-6.246-15.75-.504-22.059a16.18 16.18 0 0 1-11.364 4.637 15.853 15.853 0 0 1-11.277-4.637c-3.004-3.003-4.695-7.074-4.695-11.32s1.691-8.32 4.695-11.32l16.957-16.961 5.684-5.68 33.199-33.281a31.885 31.885 0 0 0 26.16-9.117l33.918 33.918a16.044 16.044 0 0 0 17.473 3.449 16.035 16.035 0 0 0 9.886-14.809zm0 0" opacity="1" data-original="#ffc477" class=""></path><path fill="#ffdaaa" d="M246.5 435.2a15.845 15.845 0 0 1 0 22.563c-6.242 6.202-16.32 6.202-22.559-.001l-11.363-11.282a15.724 15.724 0 0 1-2.476-3.199 16.05 16.05 0 0 1-2.16-8.082 15.99 15.99 0 0 1 9.847-14.781 15.99 15.99 0 0 1 17.43 3.422zm0 0" opacity="1" data-original="#ffdaaa" class=""></path><path fill="#ffdaaa" d="m257.86 401.2 11.28 11.359a15.956 15.956 0 0 1 4.72 11.28 16.255 16.255 0 0 1-4.72 11.36 16.004 16.004 0 0 1-11.32 4.696c-4.246 0-8.32-1.692-11.32-4.696l-11.281-11.36c-6.25-6.25-6.25-16.386 0-22.64 6.254-6.25 16.39-6.25 22.64 0zm0 0" opacity="1" data-original="#ffdaaa" class=""></path><path fill="#ffdaaa" d="M291.781 389.922c6.25 6.25 6.25 16.387 0 22.637-6.254 6.253-16.39 6.253-22.64 0l-11.282-11.36a15.873 15.873 0 0 1-4.64-11.277 16.001 16.001 0 0 1 27.281-11.363zm0 0" opacity="1" data-original="#ffdaaa" class=""></path><path fill="#ffdaaa" d="M314.422 367.281c6.25 6.25 6.25 16.387 0 22.64-6.254 6.25-16.39 6.25-22.64 0L280.5 378.56a15.836 15.836 0 0 1 0-22.559 15.572 15.572 0 0 1 19.36-2.398c1.226.597 2.34 1.41 3.28 2.398zM169.46 302.879l-33.198 33.281-5.684 5.68-16.957 16.96-39.601-39.6 79.199-79.2h33.922l65.039 65.04c6.254 6.253 6.254 16.39 0 22.64-6.25 6.254-16.387 6.254-22.64 0l-33.919-33.918a31.885 31.885 0 0 1-26.16 9.117zm0 0" opacity="1" data-original="#ffdaaa" class=""></path><path fill="#3d9ae2" d="m232.426 262.613 22.637-22.61 79.136 79.22-22.633 22.609zM51.379 296.555l79.203-79.2 22.637 22.637-79.2 79.203zm0 0" opacity="1" data-original="#3d9ae2" class=""></path><path fill="#1e81ce" d="m355.14 249.602-66.16-66.16-45.28 45.277L255.058 240l79.12 79.2 11.36 11.28 9.602-9.601 35.68-35.598zM90.98 166.48.5 256.96l34.64 34.72 10.56 10.558 84.878-84.879 5.684-5.68zm0 0" opacity="1" data-original="#1e81ce" class=""></path><path fill="#76beff" d="m283.14 0 71.758 80h-55.757c-8.829-.027-15.973-7.176-16-16zm0 0" opacity="1" data-original="#bcbec0" class=""></path><g fill="#c6c5ca"><path d="M75.14 40h16v16h-16zM107.14 40h64v16h-64zM75.14 72h96v16h-96zM75.14 120h32v16h-32zM123.14 120h192v16h-192zM139.14 168h120v16h-120zm0 0" fill="#76beff" opacity="1" data-original="#c6c5ca" class=""></path></g></g></svg>