<?xml version="1.0" ?><svg xmlns="http://www.w3.org/2000/svg" version="1.1" xmlns:xlink="http://www.w3.org/1999/xlink" width="512" height="512" x="0" y="0" viewBox="0 0 16.933 16.933" style="enable-background:new 0 0 512 512" xml:space="preserve" class=""><g><path fill="#e4eff8" d="M10.054.53a1.32 1.32 0 0 0-1.323 1.322v.265H1.323v8.466h10.054v-8.73A1.32 1.32 0 0 0 10.054.528z" opacity="1" data-original="#e4eff8" class=""></path><path fill="#c4dcf0" d="M10.493.61c0 5.21-5.995 8.386-9.17 8.386v1.587h10.054v-8.73c0-.579-.37-1.063-.884-1.244z" opacity="1" data-original="#c4dcf0" class=""></path><path fill="#549ad4" d="M1.045 9.525h2.408c.286 0 .516.23.516.516v4.789c0 .286-.23.516-.516.516H1.045a.515.515 0 0 1-.516-.516v-4.79c0-.285.23-.515.516-.515z" paint-order="stroke fill markers" opacity="1" data-original="#549ad4" class=""></path><path fill="#ffbd8d" d="m12.7 9.79-3.72-.265s-.616-.265-.793 0c-.305.454-.85 1.384-.85 1.384-.227.375-.64.583-1.042.407a.792.792 0 0 1-.409-1.044l.781-1.788c1.27-2.787 3.387-3.08 4.446-3.986l3.44 3.44-1.17 1.587c-.095.094-.086.277-.683.265z" opacity="1" data-original="#ffbd8d" class=""></path><path fill="#ffa465" d="M13.9 7.285c-1.176 1.621-3.317 1.975-3.317 1.975v.38l2.117.15c.597.012.598-.217.682-.265l1.17-1.587zM9.991 8.646a1.833 1.833 0 0 1-.633.366c-.334.112-.166.614.168.502a2.3 2.3 0 0 0 .825-.479c.233-.216.5-.497.499-.83l-.002-.263-.353-.004a.265.265 0 0 0-.258.269c.001.126-.08.286-.246.44z" opacity="1" data-original="#ffa465"></path><path fill="#ffd1b5" d="M6.35 8.996c-.53 0-1.588 1.058-2.646 1.058v4.938s1.058.354 1.323.354h6.35c.44 0 .794-.354.794-.794a.792.792 0 0 0-.794-.794h.53c.439 0 .793-.354.793-.793a.792.792 0 0 0-.794-.794h.265c.44 0 .794-.354.794-.794a.792.792 0 0 0-.794-.794h.529c.44 0 .794-.354.794-.793a.792.792 0 0 0-.794-.794z" opacity="1" data-original="#ffd1b5" class=""></path><path fill="#ffb98d" d="M12.459 8.996c0 2.646-1.488 5.556-5.315 5.556h-3.44v.44c.441.118.445.212 1.323.354h6.35c.44 0 .794-.354.794-.794a.792.792 0 0 0-.794-.794h.53c.439 0 .793-.354.793-.793a.792.792 0 0 0-.794-.794h.265c.44 0 .794-.354.794-.794a.792.792 0 0 0-.794-.794h.529c.44 0 .794-.354.794-.793a.792.792 0 0 0-.794-.794z" opacity="1" data-original="#ffb98d" class=""></path><path fill="#ffbd8d" d="M6.615 15.081v-1.323c0-.44-.354-.793-.794-.793s-.794.354-.794.793v1.323c0 .44.354.794.794.794s.794-.354.794-.794z" paint-order="stroke fill markers" opacity="1" data-original="#ffbd8d" class=""></path><path fill="#ffa465" d="M6.085 13.758v1.323a.79.79 0 0 1-.529.746.792.792 0 0 0 1.058-.746v-1.323a.792.792 0 0 0-1.058-.745c.308.109.53.399.53.745z" paint-order="stroke fill markers" opacity="1" data-original="#ffa465"></path><path fill="#ffbd8d" d="M8.202 15.61v-1.323c0-.44-.354-.793-.794-.793s-.793.354-.793.793v1.323a.792.792 0 1 0 1.588 0z" paint-order="stroke fill markers" opacity="1" data-original="#ffbd8d" class=""></path><path fill="#ffb98d" d="M3.704 10.054v4.769l.493.195a.514.514 0 0 0 .036-.188v-4.79c0-.022-.004-.043-.006-.065-.173.048-.348.08-.523.08z" paint-order="stroke fill markers" opacity="1" data-original="#ffb98d" class=""></path><path fill="#3588cb" d="M3.175 9.525v1.058c0 2.117-.53 4.234-2.124 4.234H.529v.013c0 .286.23.516.516.516h2.408c.286 0 .516-.23.516-.516v-4.79a.514.514 0 0 0-.516-.515z" paint-order="stroke fill markers" opacity="1" data-original="#3588cb" class=""></path><path fill="#ffbd8d" d="M9.79 15.61v-1.058a.792.792 0 0 0-.794-.794.792.792 0 0 0-.794.794v1.058c0 .44.354.794.794.794.44 0 .794-.354.794-.794z" paint-order="stroke fill markers" opacity="1" data-original="#ffbd8d" class=""></path><path fill="#ffbd8d" d="M11.377 15.081v-.529a.792.792 0 0 0-.794-.794.792.792 0 0 0-.793.794v.53c0 .439.354.793.793.793.44 0 .794-.354.794-.794z" paint-order="stroke fill markers" opacity="1" data-original="#ffbd8d" class=""></path><path fill="#ffa465" d="M10.848 14.552v.53a.79.79 0 0 1-.53.745.792.792 0 0 0 1.058-.746v-.529a.792.792 0 0 0-1.057-.746c.308.11.529.4.529.746zM7.144 13.542c.308.109.529.4.529.745v1.323a.79.79 0 0 1-.53.746.792.792 0 0 0 1.058-.746v-1.323a.792.792 0 0 0-1.057-.745zM9.79 15.61a.792.792 0 0 1-1.059.746.79.79 0 0 0 .53-.746v-1.058a.79.79 0 0 0-.53-.746.792.792 0 0 1 1.058.746z" paint-order="stroke fill markers" opacity="1" data-original="#ffa465"></path><path fill="#ffbd8d" d="m6.444 8.996-.558 1.276a.792.792 0 0 0 .41 1.044c.401.176.814-.032 1.042-.408 0 0 .544-.929.849-1.383.177-.265.264-.53.794-.53z" opacity="1" data-original="#ffbd8d" class=""></path><path fill="#ffa465" d="M8.258 8.996c-.53 0-.617.264-.794.529-.305.454-.85 1.383-.85 1.383-.097.162-.231.29-.382.372.021.012.04.026.063.036.402.176.815-.032 1.043-.408 0 0 .544-.929.849-1.383.177-.265.264-.53.794-.53z" opacity="1" data-original="#ffa465"></path><path fill="#549ad4" d="m10.807 3.927 1.328-1.329a.515.515 0 0 1 .73 0l3.385 3.386a.515.515 0 0 1 0 .73l-1.328 1.328a.515.515 0 0 1-.73 0l-3.385-3.386a.515.515 0 0 1 0-.73z" paint-order="stroke fill markers" opacity="1" data-original="#549ad4" class=""></path><path fill="#3588cb" d="M12.501 2.447a.514.514 0 0 0-.364.152l-.165.164 2.396 2.396c.733.662.976 1.407.447 1.935l-.785.785.164.164a.515.515 0 0 0 .73 0l1.329-1.328a.515.515 0 0 0 0-.73L12.866 2.6a.514.514 0 0 0-.365-.152z" paint-order="stroke fill markers" opacity="1" data-original="#3588cb" class=""></path><path fill="#549ad4" d="M2.117.53A1.32 1.32 0 0 0 .794 1.851v.794H8.73v-.794c0-.733.59-1.323 1.323-1.323z" opacity="1" data-original="#549ad4" class=""></path><path fill="#3588cb" d="M8.55.53C7.408 2.253 2.117 2.116 1.058 2.116H.794v.529H8.73v-.794c0-.733.59-1.323 1.323-1.323z" opacity="1" data-original="#3588cb" class=""></path><g fill="#549ad4" stroke-linecap="round" stroke-linejoin="round" paint-order="stroke fill markers"><path d="M2.395 3.705a.265.265 0 0 0-.266.264c0 .146.12.264.266.263h5.543c.145 0 .263-.115.263-.263s-.118-.263-.263-.264zM2.395 4.761a.265.265 0 1 0 0 .53h5.543a.26.26 0 0 0 .263-.263.262.262 0 0 0-.263-.267zM2.396 5.82a.265.265 0 1 0 0 .53h4.22a.264.264 0 0 0 0-.53zM3.32 6.879c-.214 0-.432.067-.622.193a1.261 1.261 0 0 0-.58.963.264.264 0 0 0 .526.035c.015-.231.136-.416.346-.556.194-.13.399-.136.55-.05.14.082.246.224.231.458a.265.265 0 0 0 .463.19.52.52 0 0 1 .274-.169c.044-.006.135-.01.238.143.05.073.132.117.22.117h.325a.265.265 0 1 0 0-.529h-.197c-.18-.2-.415-.292-.656-.256-.147.022-.201.055-.212.062a.956.956 0 0 0-.423-.474.962.962 0 0 0-.482-.127z" fill="#549ad4" opacity="1" data-original="#549ad4" class=""></path></g><path fill="#3588cb" d="M5.498 7.78c-.237.126-.475.244-.713.351a.264.264 0 0 0 .182.072h.324a.265.265 0 0 0 .266-.266.258.258 0 0 0-.059-.157z" opacity="1" data-original="#3588cb" class=""></path></g></svg>