<svg width="512" height="512" viewBox="0 0 512 512" fill="none" xmlns="http://www.w3.org/2000/svg">
<g clip-path="url(#clip0_1_28)">
<path d="M372.103 104.538V510.345C372.074 520.082 364.186 527.97 354.448 528H36.6552C26.9139 527.97 19.0309 520.082 19 510.345V33.6552C19.0309 23.9183 26.9139 16.0298 36.6552 16H292.655V86.6207C292.686 96.3575 300.57 104.246 310.31 104.276H371.836L372.103 104.538Z" fill="#EAF2FF"/>
<path d="M292.655 16L371.836 104.276H310.311C300.569 104.246 292.686 96.3575 292.656 86.6207L292.655 16Z" fill="#76BEFF"/>
<path d="M65 58H80.3333V72.5556H65V58ZM95.6667 58H157V72.5556H95.6667V58ZM65 87.1111H157V101.667H65V87.1111ZM65 130.778H95.6667V145.333H65V130.778Z" fill="#76BEFF"/>
<path d="M47.6022 302.037H120.412C129.06 302.037 136.015 308.991 136.015 317.639V462.443C136.015 471.091 129.06 478.045 120.412 478.045H47.6022C45.5522 478.049 43.5216 477.648 41.6268 476.866C39.7321 476.083 38.0105 474.934 36.5609 473.484C35.1113 472.035 33.9622 470.313 33.1796 468.419C32.3969 466.524 31.996 464.493 32 462.443V317.609C32 308.991 38.9545 302.037 47.6022 302.037Z" fill="#549AD4"/>
<path d="M400.012 310.05L287.531 302.037C287.531 302.037 268.906 294.024 263.554 302.037C254.331 315.764 237.852 343.885 237.852 343.885C230.989 355.223 218.501 361.513 206.346 356.191C203.459 354.933 200.848 353.118 198.663 350.85C196.479 348.581 194.763 345.905 193.614 342.972C192.466 340.04 191.907 336.91 191.969 333.762C192.032 330.613 192.714 327.508 193.979 324.624L217.594 270.56C255.994 186.29 320.006 177.431 352.026 150.036L456.041 254.051L420.664 302.037C417.792 304.879 418.064 310.412 400.012 310.05Z" fill="#FFBD8D"/>
<path d="M436.297 234.306C400.738 283.32 336.001 294.024 336.001 294.024V305.514L400.012 310.05C418.064 310.412 418.094 303.488 420.634 302.037L456.011 254.051L436.297 234.306ZM318.101 275.459C312.529 280.396 306.019 284.159 298.961 286.525C288.862 289.912 293.942 305.091 304.041 301.704C313.277 298.673 321.775 293.739 328.986 287.221C336.031 280.69 344.104 272.193 344.074 262.124L344.014 254.172L333.34 254.051C331.231 254.106 329.229 254.992 327.768 256.515C326.307 258.037 325.506 260.075 325.539 262.185C325.569 265.995 323.12 270.832 318.101 275.489V275.459Z" fill="#FFA465"/>
<path d="M208.009 286.042C191.983 286.042 159.992 318.032 128.002 318.032V467.341C128.002 467.341 159.992 478.045 168.005 478.045H360.009C373.313 478.045 384.017 467.341 384.017 454.037C384.025 450.882 383.409 447.757 382.206 444.84C381.002 441.924 379.234 439.274 377.003 437.043C374.772 434.812 372.122 433.044 369.206 431.84C366.29 430.637 363.164 430.021 360.009 430.029H376.035C389.308 430.029 400.012 419.325 400.012 406.051C400.02 402.896 399.405 399.771 398.201 396.855C396.997 393.938 395.229 391.288 392.998 389.057C390.767 386.826 388.118 385.058 385.201 383.855C382.285 382.651 379.159 382.035 376.004 382.043H384.017C397.321 382.043 408.025 371.34 408.025 358.035C408.033 354.88 407.418 351.755 406.214 348.838C405.01 345.922 403.242 343.272 401.011 341.041C398.78 338.81 396.13 337.042 393.214 335.839C390.298 334.635 387.172 334.019 384.017 334.027H400.012C413.317 334.027 424.02 323.324 424.02 310.05C424.028 306.895 423.413 303.769 422.209 300.853C421.005 297.936 419.237 295.286 417.006 293.056C414.775 290.825 412.126 289.056 409.209 287.853C406.293 286.649 403.167 286.034 400.012 286.042H208.009Z" fill="#FFD1B5"/>
<path d="M392.725 286.042C392.725 366.048 347.733 454.037 232.017 454.037H128.002V467.341C141.336 470.909 141.457 473.752 168.005 478.045H360.009C373.313 478.045 384.017 467.341 384.017 454.037C384.025 450.882 383.409 447.757 382.206 444.84C381.002 441.924 379.234 439.274 377.003 437.043C374.772 434.812 372.122 433.044 369.206 431.84C366.29 430.637 363.164 430.021 360.009 430.029H376.035C389.308 430.029 400.012 419.325 400.012 406.051C400.02 402.896 399.405 399.771 398.201 396.855C396.997 393.938 395.229 391.288 392.998 389.057C390.767 386.826 388.118 385.058 385.201 383.855C382.285 382.651 379.159 382.035 376.004 382.043H384.017C397.321 382.043 408.025 371.34 408.025 358.035C408.033 354.88 407.418 351.755 406.214 348.838C405.01 345.922 403.242 343.272 401.011 341.041C398.78 338.81 396.13 337.042 393.214 335.839C390.298 334.635 387.172 334.019 384.017 334.027H400.012C413.317 334.027 424.02 323.324 424.02 310.05C424.028 306.895 423.413 303.769 422.209 300.853C421.005 297.936 419.237 295.286 417.006 293.056C414.775 290.825 412.126 289.056 409.209 287.853C406.293 286.649 403.167 286.034 400.012 286.042H392.725Z" fill="#FFB98D"/>
<path d="M216.021 470.033V430.029C216.021 416.725 205.317 406.051 192.013 406.051C178.709 406.051 168.005 416.755 168.005 430.029V470.033C168.005 483.337 178.709 494.041 192.013 494.041C205.317 494.041 216.021 483.337 216.021 470.033Z" fill="#FFBD8D"/>
<path d="M199.996 430.029V470.033C199.998 474.987 198.46 479.819 195.594 483.861C192.728 487.902 188.677 490.952 184.001 492.589C187.614 493.878 191.485 494.279 195.286 493.76C199.087 493.24 202.708 491.815 205.843 489.604C208.979 487.393 211.537 484.462 213.303 481.056C215.069 477.65 215.991 473.869 215.991 470.033V430.029C215.986 426.195 215.061 422.418 213.293 419.016C211.525 415.614 208.966 412.686 205.831 410.479C202.696 408.272 199.077 406.849 195.278 406.331C191.48 405.813 187.612 406.215 184.001 407.503C193.313 410.799 199.996 419.567 199.996 430.029Z" fill="#FFA465"/>
<path d="M264.007 486.028V446.024C264.007 432.72 253.303 422.047 239.999 422.047C226.695 422.047 216.021 432.751 216.021 446.024V486.028C216.021 492.395 218.551 498.502 223.053 503.004C227.555 507.506 233.662 510.036 240.029 510.036C246.397 510.036 252.503 507.506 257.006 503.004C261.508 498.502 264.037 492.395 264.037 486.028H264.007Z" fill="#FFBD8D"/>
<path d="M128.002 318.032V462.231L142.909 468.128C143.624 466.318 143.993 464.389 143.997 462.443V317.609C143.997 316.944 143.876 316.309 143.816 315.643C138.585 317.095 133.293 318.062 128.002 318.062V318.032Z" fill="#FFB98D"/>
<path d="M112.007 302.037V334.027C112.007 398.039 95.9811 462.05 47.7836 462.05H32V462.443C32 471.091 38.9545 478.045 47.6022 478.045H120.412C129.06 478.045 136.015 471.091 136.015 462.443V317.609C136.019 315.56 135.618 313.531 134.835 311.638C134.052 309.745 132.902 308.025 131.452 306.578C130.002 305.131 128.28 303.985 126.386 303.205C124.491 302.426 122.461 302.029 120.412 302.037H112.007Z" fill="#3588CB"/>
<path d="M312.023 486.028V454.037C312.031 450.882 311.416 447.757 310.212 444.84C309.008 441.924 307.24 439.274 305.009 437.043C302.778 434.812 300.128 433.044 297.212 431.841C294.296 430.637 291.17 430.021 288.015 430.029C284.86 430.021 281.735 430.637 278.818 431.841C275.902 433.044 273.252 434.812 271.021 437.043C268.79 439.274 267.022 441.924 265.818 444.84C264.615 447.757 263.999 450.882 264.007 454.037V486.028C264.007 499.332 274.711 510.036 288.015 510.036C301.319 510.036 312.023 499.332 312.023 486.028Z" fill="#FFBD8D"/>
<path d="M360.009 470.033V454.037C360.017 450.882 359.401 447.757 358.198 444.84C356.994 441.924 355.226 439.274 352.995 437.043C350.764 434.812 348.114 433.044 345.198 431.841C342.281 430.637 339.156 430.021 336.001 430.029C332.848 430.025 329.726 430.644 326.813 431.849C323.9 433.055 321.254 434.823 319.026 437.054C316.799 439.285 315.033 441.933 313.832 444.847C312.63 447.762 312.015 450.885 312.023 454.037V470.063C312.023 483.337 322.727 494.041 336.001 494.041C349.305 494.041 360.009 483.337 360.009 470.033Z" fill="#FFBD8D"/>
<path d="M344.014 454.037V470.063C344.008 475.016 342.462 479.844 339.591 483.88C336.72 487.916 332.665 490.959 327.988 492.589C331.602 493.878 335.472 494.279 339.274 493.76C343.075 493.24 346.696 491.815 349.831 489.604C352.967 487.393 355.525 484.462 357.291 481.056C359.057 477.65 359.979 473.869 359.979 470.033V454.037C359.977 450.204 359.055 446.428 357.291 443.025C355.527 439.622 352.971 436.693 349.84 434.482C346.708 432.272 343.092 430.846 339.295 430.324C335.498 429.801 331.63 430.198 328.018 431.481C337.331 434.807 344.014 443.575 344.014 454.037ZM232.017 423.498C241.33 426.794 248.012 435.593 248.012 446.025V486.028C248.012 490.986 246.469 495.821 243.598 499.863C240.726 503.905 236.668 506.953 231.986 508.585C235.6 509.873 239.47 510.275 243.272 509.755C247.073 509.236 250.694 507.81 253.829 505.6C256.965 503.389 259.523 500.457 261.289 497.051C263.055 493.645 263.977 489.864 263.977 486.028V446.025C263.97 442.194 263.045 438.421 261.279 435.022C259.512 431.624 256.957 428.698 253.826 426.491C250.695 424.285 247.08 422.861 243.285 422.34C239.491 421.819 235.626 422.216 232.017 423.498ZM312.023 486.028C312.025 489.868 311.103 493.652 309.336 497.062C307.568 500.471 305.006 503.405 301.867 505.617C298.727 507.828 295.102 509.252 291.297 509.769C287.492 510.285 283.618 509.879 280.002 508.585C284.684 506.953 288.742 503.905 291.614 499.863C294.485 495.821 296.028 490.986 296.028 486.028V454.037C296.028 449.079 294.485 444.244 291.614 440.202C288.742 436.161 284.684 433.112 280.002 431.481C283.616 430.192 287.487 429.791 291.288 430.31C295.089 430.83 298.71 432.255 301.845 434.466C304.981 436.676 307.539 439.608 309.305 443.014C311.071 446.42 311.993 450.201 311.993 454.037L312.023 486.028Z" fill="#FFA465"/>
<path d="M210.851 286.042L193.979 324.624C192.715 327.51 192.034 330.617 191.974 333.767C191.913 336.917 192.475 340.047 193.626 342.98C194.778 345.912 196.497 348.589 198.685 350.856C200.873 353.123 203.486 354.936 206.376 356.191C218.501 361.513 230.988 355.223 237.882 343.854C237.882 343.854 254.331 315.764 263.554 302.037C268.905 294.024 271.536 286.011 287.562 286.011L210.851 286.042Z" fill="#FFBD8D"/>
<path d="M265.7 286.042C249.675 286.042 247.044 294.024 241.692 302.037C232.47 315.764 215.991 343.854 215.991 343.854C213.058 348.753 209.006 352.623 204.441 355.102C205.076 355.465 205.65 355.889 206.346 356.191C218.501 361.513 230.989 355.223 237.883 343.854C237.883 343.854 254.331 315.764 263.554 302.037C268.906 294.024 271.536 286.011 287.562 286.011L265.7 286.042Z" fill="#FFA465"/>
<path d="M342.774 132.771L382.928 92.5864C384.375 91.1328 386.095 89.9793 387.989 89.1922C389.883 88.4052 391.914 88 393.965 88C396.016 88 398.047 88.4052 399.941 89.1922C401.835 89.9793 403.554 91.1328 405.001 92.5864L507.353 194.968C508.807 196.415 509.96 198.135 510.747 200.029C511.534 201.923 511.939 203.954 511.939 206.005C511.939 208.056 511.534 210.086 510.747 211.98C509.96 213.874 508.807 215.594 507.353 217.041L467.198 257.196C465.752 258.649 464.032 259.803 462.138 260.59C460.244 261.377 458.213 261.782 456.162 261.782C454.111 261.782 452.08 261.377 450.186 260.59C448.292 259.803 446.573 258.649 445.126 257.196L342.774 154.814C341.32 153.367 340.167 151.647 339.38 149.753C338.593 147.859 338.188 145.828 338.188 143.777C338.188 141.726 338.593 139.696 339.38 137.802C340.167 135.908 341.32 134.218 342.774 132.771Z" fill="#549AD4"/>
<path d="M393.995 88.0206C391.948 88.0242 389.922 88.4321 388.034 89.2208C386.145 90.0095 384.431 91.1635 382.989 92.6166L378 97.5755L450.447 170.023C472.611 190.04 479.958 212.566 463.963 228.531L440.227 252.267L445.186 257.226C446.633 258.679 448.353 259.833 450.247 260.62C452.141 261.407 454.172 261.812 456.223 261.812C458.274 261.812 460.304 261.407 462.198 260.62C464.092 259.833 465.812 258.679 467.259 257.226L507.444 217.071C508.897 215.624 510.051 213.905 510.838 212.011C511.625 210.117 512.03 208.086 512.03 206.035C512.03 203.984 511.625 201.953 510.838 200.059C510.051 198.165 508.897 196.445 507.444 194.998L405.032 92.6469C403.587 91.1902 401.867 90.034 399.973 89.2452C398.079 88.4564 396.047 88.0202 393.995 88.0206Z" fill="#3588CB"/>
<path d="M90.376 162C89.3238 161.996 88.281 162.199 87.3074 162.598C86.3337 162.997 85.4481 163.584 84.7013 164.326C83.9544 165.067 83.3608 165.948 82.9545 166.919C82.5482 167.889 82.337 168.93 82.333 169.983C82.333 174.397 85.9614 177.965 90.376 177.935H257.979C262.363 177.935 265.931 174.458 265.931 169.983C265.931 165.508 262.363 162.03 257.979 162H90.376ZM90.376 193.93C88.2509 193.93 86.2128 194.774 84.7101 196.277C83.2075 197.78 82.3633 199.818 82.3633 201.943C82.3633 204.068 83.2075 206.106 84.7101 207.609C86.2128 209.111 88.2509 209.956 90.376 209.956H257.979C259.026 209.968 260.066 209.77 261.036 209.375C262.007 208.98 262.888 208.394 263.629 207.654C264.37 206.913 264.955 206.031 265.35 205.061C265.746 204.091 265.943 203.051 265.931 202.003C265.951 200.948 265.76 199.899 265.369 198.918C264.978 197.938 264.395 197.045 263.654 196.293C262.913 195.541 262.03 194.944 261.055 194.538C260.08 194.133 259.034 193.926 257.979 193.93H90.376ZM90.4062 225.951C88.2811 225.951 86.2431 226.795 84.7404 228.298C83.2377 229.8 82.3935 231.839 82.3935 233.964C82.3935 236.089 83.2377 238.127 84.7404 239.63C86.2431 241.132 88.2811 241.976 90.4062 241.976H218.006C220.131 241.976 222.169 241.132 223.671 239.63C225.174 238.127 226.018 236.089 226.018 233.964C226.018 231.839 225.174 229.8 223.671 228.298C222.169 226.795 220.131 225.951 218.006 225.951H90.4062ZM118.345 257.972C111.874 257.972 105.283 259.998 99.5378 263.807C94.5616 266.974 90.3878 271.251 87.3448 276.304C84.3017 281.357 82.4723 287.046 82.0004 292.925C81.9797 294.965 82.7403 296.934 84.1261 298.431C85.5119 299.927 87.4177 300.836 89.4525 300.971C91.4874 301.107 93.4968 300.458 95.0686 299.159C96.6404 297.859 97.6553 296.008 97.905 293.984C98.3585 286.999 102.017 281.405 108.367 277.172C114.233 273.241 120.431 273.06 124.997 275.66C129.23 278.14 132.435 282.433 131.982 289.509C131.892 291.169 132.321 292.817 133.21 294.223C134.098 295.628 135.402 296.723 136.941 297.354C138.48 297.986 140.176 298.123 141.796 297.746C143.416 297.37 144.879 296.499 145.982 295.254C148.133 292.717 151.034 290.928 154.266 290.144C155.597 289.962 158.348 289.841 161.463 294.468C162.975 296.675 165.454 298.005 168.115 298.005H177.942C179.033 298.072 180.127 297.915 181.156 297.544C182.185 297.172 183.126 296.594 183.923 295.845C184.72 295.096 185.355 294.191 185.789 293.187C186.223 292.183 186.447 291.101 186.447 290.008C186.447 288.914 186.223 287.832 185.789 286.828C185.355 285.824 184.72 284.92 183.923 284.17C183.126 283.421 182.185 282.843 181.156 282.471C180.127 282.1 179.033 281.943 177.942 282.01H171.985C166.543 275.963 159.437 273.181 152.15 274.269C147.705 274.935 146.072 275.932 145.74 276.144C143.235 270.048 138.722 264.992 132.949 261.812C128.513 259.274 123.486 257.949 118.375 257.972H118.345Z" fill="#549AD4"/>
</g>
<defs>
<clipPath id="clip0_1_28">
<rect width="512" height="512" fill="white"/>
</clipPath>
</defs>
</svg>
