<svg width="512" height="512" viewBox="0 0 512 512" fill="none" xmlns="http://www.w3.org/2000/svg">
<g clip-path="url(#clip0_4_2)">
<path d="M380.995 74.345L345.111 0H86.02C71.796 0 60.266 11.531 60.266 25.755V486.246C60.266 500.469 71.796 512 86.02 512H390.937C396.577 512 401.79 510.182 406.033 507.107H427.738V90.634L380.995 74.345Z" fill="#FFE1A1"/>
<path d="M427.738 90.6342L416.692 86.7852V486.247C416.692 500.471 405.161 512.002 390.937 512.002H425.979C440.203 512.002 451.734 500.471 451.734 486.247V106.624L427.738 90.6342Z" fill="#FFBA4A"/>
<path d="M389.924 177.481H122.076C120.027 177.481 118.062 176.667 116.613 175.218C115.164 173.769 114.35 171.804 114.35 169.755C114.35 167.706 115.164 165.741 116.613 164.292C118.062 162.843 120.027 162.029 122.076 162.029H389.923C391.972 162.029 393.937 162.843 395.386 164.291C396.835 165.74 397.649 167.705 397.649 169.754C397.65 171.803 396.836 173.769 395.387 175.218C393.938 176.667 391.973 177.481 389.924 177.481ZM389.924 246.16H122.076C121.061 246.16 120.057 245.96 119.119 245.572C118.182 245.183 117.33 244.614 116.613 243.897C115.895 243.179 115.326 242.328 114.938 241.39C114.55 240.453 114.35 239.448 114.35 238.434C114.35 237.419 114.55 236.415 114.938 235.477C115.326 234.54 115.895 233.688 116.613 232.971C117.33 232.253 118.182 231.684 119.119 231.296C120.057 230.908 121.061 230.708 122.076 230.708H389.923C391.972 230.708 393.937 231.522 395.386 232.97C396.835 234.419 397.649 236.384 397.649 238.433C397.65 240.482 396.836 242.448 395.387 243.897C393.938 245.346 391.973 246.16 389.924 246.16ZM389.924 314.838H122.076C120.027 314.838 118.062 314.024 116.613 312.575C115.164 311.126 114.35 309.161 114.35 307.112C114.35 305.063 115.164 303.098 116.613 301.649C118.062 300.2 120.027 299.386 122.076 299.386H389.923C391.972 299.386 393.937 300.2 395.386 301.649C396.835 303.098 397.649 305.063 397.649 307.112C397.649 308.126 397.45 309.131 397.061 310.068C396.673 311.006 396.104 311.858 395.387 312.575C394.67 313.293 393.818 313.862 392.881 314.25C391.943 314.638 390.939 314.838 389.924 314.838ZM389.924 383.517H122.076C120.027 383.517 118.062 382.703 116.613 381.254C115.164 379.805 114.35 377.84 114.35 375.791C114.35 373.742 115.164 371.777 116.613 370.328C118.062 368.879 120.027 368.065 122.076 368.065H389.923C391.972 368.065 393.937 368.879 395.386 370.328C396.835 371.777 397.649 373.742 397.649 375.791C397.649 376.805 397.45 377.81 397.061 378.747C396.673 379.685 396.104 380.537 395.387 381.254C394.67 381.972 393.818 382.541 392.881 382.929C391.943 383.317 390.939 383.517 389.924 383.517Z" fill="#FEBB14"/>
<path d="M370.865 106.624H451.734L345.111 0V80.869C345.111 95.093 356.641 106.624 370.865 106.624Z" fill="#FFCA45"/>
</g>
<defs>
<clipPath id="clip0_4_2">
<rect width="512" height="512" fill="white"/>
</clipPath>
</defs>
</svg>
