<?xml version="1.0" ?><svg xmlns="http://www.w3.org/2000/svg" version="1.1" xmlns:xlink="http://www.w3.org/1999/xlink" width="512" height="512" x="0" y="0" viewBox="0 0 512 512" style="enable-background:new 0 0 512 512" xml:space="preserve" class=""><g><path fill="#eaf6ff" d="M380.995 74.345 345.111 0H86.02C71.796 0 60.266 11.531 60.266 25.755v460.491c0 14.223 11.53 25.754 25.754 25.754h304.917c5.64 0 10.853-1.818 15.096-4.893h21.705V90.634z" opacity="1" data-original="#eaf6ff" class=""></path><path fill="#d8ecfe" d="m427.738 90.634-11.046-3.849v399.462c0 14.224-11.531 25.755-25.755 25.755h35.042c14.224 0 25.755-11.531 25.755-25.755V106.624z" opacity="1" data-original="#d8ecfe"></path><path fill="#82aee3" d="M389.924 177.481H122.076a7.726 7.726 0 1 1 0-15.452h267.847a7.726 7.726 0 0 1 .001 15.452zM389.924 246.16H122.076a7.726 7.726 0 1 1 0-15.452h267.847a7.726 7.726 0 0 1 .001 15.452zM389.924 314.838H122.076a7.726 7.726 0 1 1 0-15.452h267.847a7.726 7.726 0 0 1 7.726 7.726 7.724 7.724 0 0 1-7.725 7.726zM389.924 383.517H122.076a7.726 7.726 0 1 1 0-15.452h267.847a7.726 7.726 0 0 1 7.726 7.726 7.724 7.724 0 0 1-7.725 7.726z" opacity="1" data-original="#82aee3" class=""></path><path fill="#b3dafe" d="M370.865 106.624h80.869L345.111 0v80.869c0 14.224 11.53 25.755 25.754 25.755z" opacity="1" data-original="#b3dafe"></path></g></svg>