<?xml version="1.0" ?><svg xmlns="http://www.w3.org/2000/svg" version="1.1" xmlns:xlink="http://www.w3.org/1999/xlink" width="512" height="512" x="0" y="0" viewBox="0 0 48 48" style="enable-background:new 0 0 512 512" xml:space="preserve" class=""><g transform="matrix(1,-2.465190328815662e-32,2.465190328815662e-32,1,0,0)"><path fill="#f34858" d="m8.103 10.78.08 25.521L24 27.169l-.08-25.52z" opacity="1" data-original="#f34858"></path><path fill="#f1f1f2" d="m8.634 11.072.061 21.506 14.5-8.371L23.134 2.7z" opacity="1" data-original="#f1f1f2"></path><path fill="#d8d8d8" d="m8.891 11.22.061 21.507 14.5-8.372L23.39 2.85z" opacity="1" data-original="#d8d8d8"></path><path fill="#f1f1f2" d="m9.148 11.368.061 21.507 14.5-8.371-.061-21.507z" opacity="1" data-original="#f1f1f2"></path><path fill="#d8d8d8" d="m9.405 11.517.06 21.506 14.5-8.371-.06-21.506z" opacity="1" data-original="#d8d8d8"></path><path fill="#f1f1f2" d="m9.662 11.665.06 21.507 14.5-8.372-.06-21.506z" opacity="1" data-original="#f1f1f2"></path><path fill="#d8d8d8" d="M9.918 11.814 9.98 33.32l14.5-8.371-.061-21.507z" opacity="1" data-original="#d8d8d8"></path><path fill="#f1f1f2" d="m10.175 11.962.061 21.506 14.5-8.37-.061-21.507z" opacity="1" data-original="#f1f1f2"></path><path fill="#d8d8d8" d="m10.432 12.11.06 21.507 14.5-8.372-.06-21.506z" opacity="1" data-original="#d8d8d8"></path><path fill="#f1f1f2" d="m10.689 12.259.06 21.506 14.5-8.371-.06-21.507z" opacity="1" data-original="#f1f1f2"></path><path fill="#d8d8d8" d="m10.945 12.407.061 21.507 14.5-8.372-.06-21.506z" opacity="1" data-original="#d8d8d8"></path><path fill="#f1f1f2" d="m11.202 12.556.061 21.506 14.5-8.371-.061-21.507z" opacity="1" data-original="#f1f1f2"></path><path fill="#d8d8d8" d="m11.46 12.704.06 21.506 14.5-8.371-.061-21.506z" opacity="1" data-original="#d8d8d8"></path><path fill="#f1f1f2" d="m11.716 12.852.06 21.507 14.5-8.372-.06-21.506z" opacity="1" data-original="#f1f1f2"></path><path fill="#d8d8d8" d="m11.973 13 .06 21.507 14.5-8.371-.06-21.507z" opacity="1" data-original="#d8d8d8"></path><path fill="#f1f1f2" d="m12.23 13.15.06 21.506 14.5-8.372-.061-21.506z" opacity="1" data-original="#f1f1f2"></path><path fill="#d8d8d8" d="m12.486 13.297.061 21.507 14.5-8.371-.061-21.507z" opacity="1" data-original="#d8d8d8"></path><path fill="#f1f1f2" d="m12.743 13.446.06 21.506 14.5-8.371-.06-21.507z" opacity="1" data-original="#f1f1f2"></path><path fill="#f1f1f2" d="m13 13.594.06 21.507 14.5-8.372-.06-21.506z" opacity="1" data-original="#f1f1f2"></path><path fill="#f1f1f2" d="m13.257 13.743.06 21.506 14.5-8.371-.06-21.507z" opacity="1" data-original="#f1f1f2"></path><path fill="#f34858" d="m12.786 13.806.08 25.52 16.08-9.284-.08-25.52z" opacity="1" data-original="#f34858"></path><path fill="#fa5168" d="m7.586 10.783.08 25.52 5.2 3.023-.08-25.52z" opacity="1" data-original="#fa5168" class=""></path><path fill="#465160" d="M11.715 31.923c0 .939-.67 1.316-1.484.846-.812-.468-1.474-1.617-1.466-2.547 0-.938.662-1.315 1.475-.846.82.47 1.475 1.617 1.475 2.547z" opacity="1" data-original="#465160"></path><path fill="#f9607f" d="m7.586 10.783 5.2 3.023 16.08-9.284-.26-.15-15.818 9.131-4.685-2.722L23.92 1.648l-.255-.148z" opacity="1" data-original="#f9607f"></path><path fill="#ffffff" d="m12.058 15.654-.025 11.095c0 .167-.117.234-.26.15l-3.117-1.793a.567.567 0 0 1-.268-.452l.025-11.102c0-.16.118-.227.268-.143l3.126 1.793a.596.596 0 0 1 .251.452z" opacity="1" data-original="#ffffff" class=""></path><path fill="#bfbfbf" d="m11.788 15.599-.001.284-3.097-1.782v-.285z" opacity="1" data-original="#bfbfbf" class=""></path><path fill="#d8d8d8" d="M11.786 16.334v.13l-3.098-1.782v-.13zM11.784 17.235v.13l-3.098-1.782v-.13zM11.782 18.137v.13l-3.098-1.783v-.13zM11.78 19.038v.13l-3.097-1.782v-.13zM11.778 19.941v.127L8.68 18.285v-.126zM11.776 20.843v.126l-3.097-1.782v-.127zM11.774 21.744v.127l-3.097-1.783v-.126zM11.773 22.643v.131l-3.098-1.782v-.131z" opacity="1" data-original="#d8d8d8"></path><path fill="#bfbfbf" d="M11.765 26.172v.285l-3.097-1.783v-.284z" opacity="1" data-original="#bfbfbf" class=""></path><path fill="#d8d8d8" d="M11.767 25.348v.13L8.67 23.696v-.13zM11.769 24.446v.13L8.67 22.795v-.13zM11.77 23.545v.13l-3.097-1.782v-.13z" opacity="1" data-original="#d8d8d8"></path><path fill="#202a35" d="M10.245 29.377c.813.47 1.473 1.613 1.47 2.548-.002.935-.666 1.314-1.48.844-.814-.47-1.474-1.613-1.471-2.548s.667-1.314 1.48-.844zm-.009 2.92c.588.34 1.067.067 1.069-.61.002-.675-.474-1.499-1.062-1.838-.588-.34-1.067-.067-1.069.609-.002.675.474 1.5 1.062 1.839" opacity="1" data-original="#202a35" class=""></path><path fill="#465160" d="M16.683 20.212c.093-.054.168-.01.169.097v.393a.368.368 0 0 1-.167.29l-2.442 1.41c-.094.055-.17.012-.17-.096v-.393c0-.107.074-.237.167-.29zm-2.39 1.928 2.322-1.34-.001-.305-2.322 1.34z" opacity="1" data-original="#465160"></path><path fill="#f1f1f2" d="M14.292 21.836v.304l2.323-1.34-.001-.305z" opacity="1" data-original="#f1f1f2"></path><path fill="#465160" d="M16.683 28.443c.093-.054.168-.01.169.097v.393a.368.368 0 0 1-.167.291l-2.442 1.41c-.094.054-.17.011-.17-.096v-.394c0-.107.074-.237.167-.29zm-2.39 1.928 2.322-1.34-.001-.305-2.322 1.34z" opacity="1" data-original="#465160"></path><path fill="#f1f1f2" d="M14.292 30.067v.304l2.323-1.34-.001-.305z" opacity="1" data-original="#f1f1f2"></path><path fill="#5983e2" d="m13.837 14.368.08 25.52 15.818-9.132-.08-25.52z" opacity="1" data-original="#5983e2"></path><path fill="#f1f1f2" d="m14.369 14.659.06 21.506 14.5-8.371-.06-21.507z" opacity="1" data-original="#f1f1f2"></path><path fill="#d8d8d8" d="m14.626 14.807.06 21.507 14.5-8.372-.06-21.506z" opacity="1" data-original="#d8d8d8"></path><path fill="#f1f1f2" d="m14.883 14.956.06 21.506 14.5-8.371-.06-21.507z" opacity="1" data-original="#f1f1f2"></path><path fill="#d8d8d8" d="m15.14 15.104.06 21.506 14.5-8.37-.061-21.507z" opacity="1" data-original="#d8d8d8"></path><path fill="#f1f1f2" d="m15.396 15.252.061 21.507 14.5-8.372-.061-21.506z" opacity="1" data-original="#f1f1f2"></path><path fill="#d8d8d8" d="m15.653 15.4.06 21.507 14.5-8.371-.06-21.507z" opacity="1" data-original="#d8d8d8"></path><path fill="#f1f1f2" d="m15.91 15.55.06 21.506 14.5-8.372-.06-21.506z" opacity="1" data-original="#f1f1f2"></path><path fill="#d8d8d8" d="m16.166 15.697.061 21.507 14.5-8.371-.061-21.507z" opacity="1" data-original="#d8d8d8"></path><path fill="#f1f1f2" d="m16.423 15.846.061 21.506 14.5-8.371-.061-21.507z" opacity="1" data-original="#f1f1f2"></path><path fill="#d8d8d8" d="m16.68 15.994.06 21.507 14.5-8.372-.06-21.506z" opacity="1" data-original="#d8d8d8"></path><path fill="#f1f1f2" d="m16.937 16.143.06 21.506 14.5-8.371-.06-21.507z" opacity="1" data-original="#f1f1f2"></path><path fill="#d8d8d8" d="m17.194 16.291.06 21.506 14.5-8.37-.06-21.507z" opacity="1" data-original="#d8d8d8"></path><path fill="#f1f1f2" d="m17.45 16.44.061 21.506 14.5-8.371-.061-21.507z" opacity="1" data-original="#f1f1f2"></path><path fill="#d8d8d8" d="m17.707 16.588.061 21.506 14.5-8.371-.061-21.507z" opacity="1" data-original="#d8d8d8"></path><path fill="#f1f1f2" d="m17.964 16.736.06 21.507 14.5-8.372-.06-21.506z" opacity="1" data-original="#f1f1f2"></path><path fill="#d8d8d8" d="m18.22 16.885.062 21.506 14.5-8.371-.062-21.507z" opacity="1" data-original="#d8d8d8"></path><path fill="#f1f1f2" d="m18.477 17.033.061 21.506 14.5-8.37-.061-21.507z" opacity="1" data-original="#f1f1f2"></path><path fill="#f1f1f2" d="m18.734 17.181.061 21.507 14.5-8.372-.061-21.506z" opacity="1" data-original="#f1f1f2"></path><path fill="#f1f1f2" d="m18.991 17.33.061 21.506 14.5-8.371-.061-21.507z" opacity="1" data-original="#f1f1f2"></path><path fill="#5983e2" d="m18.52 17.393.08 25.52 16.08-9.283-.08-25.52z" opacity="1" data-original="#5983e2"></path><path fill="#658bee" d="m13.32 14.37.08 25.52 5.2 3.023-.08-25.52z" opacity="1" data-original="#658bee" class=""></path><path fill="#465160" d="M17.449 35.51c0 .939-.67 1.316-1.483.846-.813-.468-1.475-1.616-1.466-2.547 0-.938.662-1.315 1.474-.846.821.47 1.475 1.617 1.475 2.547z" opacity="1" data-original="#465160"></path><path fill="#8facfc" d="m13.32 14.37 5.2 3.023L34.6 8.109l-.26-.15-15.817 9.132-4.686-2.723 15.818-9.133-.255-.148z" opacity="1" data-original="#8facfc"></path><path fill="#ffffff" d="m17.793 19.242-.026 11.094c0 .167-.117.234-.26.15l-3.116-1.793a.567.567 0 0 1-.269-.452l.026-11.102c0-.16.117-.227.268-.143l3.125 1.793a.596.596 0 0 1 .252.453z" opacity="1" data-original="#ffffff" class=""></path><path fill="#bfbfbf" d="M17.522 19.186v.284l-3.098-1.782.001-.285z" opacity="1" data-original="#bfbfbf" class=""></path><path fill="#d8d8d8" d="M17.52 19.92v.131l-3.097-1.782v-.13zM17.518 20.822v.13L14.42 19.17v-.13zM17.516 21.724v.13l-3.097-1.782v-.13zM17.514 22.625v.13l-3.097-1.782v-.13zM17.513 23.528v.127l-3.098-1.783v-.126zM17.51 24.43v.126l-3.097-1.782v-.127zM17.509 25.331v.127l-3.097-1.783v-.126zM17.507 26.23v.131L14.41 24.58v-.131z" opacity="1" data-original="#d8d8d8"></path><path fill="#bfbfbf" d="M17.5 29.76v.284l-3.098-1.783v-.284z" opacity="1" data-original="#bfbfbf" class=""></path><path fill="#d8d8d8" d="M17.502 28.935v.13l-3.098-1.782v-.13zM17.503 28.034v.13l-3.097-1.783v-.13zM17.505 27.132v.13l-3.097-1.782v-.13z" opacity="1" data-original="#d8d8d8"></path><path fill="#202a35" d="M15.979 32.964c.814.47 1.474 1.613 1.471 2.548-.002.935-.667 1.314-1.48.844-.814-.47-1.474-1.613-1.472-2.548.003-.936.667-1.314 1.481-.844zm-.008 2.92c.588.34 1.067.067 1.069-.61.002-.675-.474-1.499-1.062-1.838-.588-.34-1.067-.067-1.069.609-.002.676.474 1.5 1.062 1.839" opacity="1" data-original="#202a35" class=""></path><path fill="#465160" d="M22.417 23.8c.094-.055.169-.012.17.096v.393a.368.368 0 0 1-.168.29l-2.442 1.41c-.093.055-.169.012-.169-.095l-.001-.394c0-.107.074-.237.168-.29zm-2.39 1.927 2.322-1.34v-.305l-2.323 1.34z" opacity="1" data-original="#465160"></path><path fill="#f1f1f2" d="m20.026 25.423.001.304 2.322-1.34v-.305z" opacity="1" data-original="#f1f1f2"></path><path fill="#465160" d="M22.417 32.03c.094-.054.169-.01.17.097v.393a.368.368 0 0 1-.168.291l-2.442 1.41c-.093.054-.169.011-.169-.096l-.001-.394c0-.107.074-.236.168-.29zm-2.39 1.928 2.322-1.34v-.305l-2.323 1.341z" opacity="1" data-original="#465160"></path><path fill="#f1f1f2" d="m20.026 33.654.001.304 2.322-1.34v-.305z" opacity="1" data-original="#f1f1f2"></path><path fill="#6eba6e" d="m19.572 17.955.08 25.52 15.817-9.132-.08-25.52z" opacity="1" data-original="#6eba6e"></path><path fill="#f1f1f2" d="m20.103 18.246.061 21.506 14.5-8.371-.061-21.506z" opacity="1" data-original="#f1f1f2"></path><path fill="#d8d8d8" d="m20.36 18.394.061 21.507 14.5-8.372-.061-21.506z" opacity="1" data-original="#d8d8d8"></path><path fill="#f1f1f2" d="m20.617 18.543.061 21.506 14.5-8.371-.061-21.507z" opacity="1" data-original="#f1f1f2"></path><path fill="#d8d8d8" d="m20.874 18.691.06 21.506 14.5-8.37-.06-21.507z" opacity="1" data-original="#d8d8d8"></path><path fill="#f1f1f2" d="m21.13 18.84.062 21.506 14.5-8.371-.062-21.507z" opacity="1" data-original="#f1f1f2"></path><path fill="#d8d8d8" d="m21.387 18.988.061 21.506 14.5-8.371-.061-21.507z" opacity="1" data-original="#d8d8d8"></path><path fill="#f1f1f2" d="m21.644 19.136.061 21.507 14.5-8.372-.061-21.506z" opacity="1" data-original="#f1f1f2"></path><path fill="#d8d8d8" d="m21.9 19.285.062 21.506 14.5-8.371-.062-21.507z" opacity="1" data-original="#d8d8d8"></path><path fill="#f1f1f2" d="m22.158 19.433.06 21.506 14.5-8.37-.06-21.507z" opacity="1" data-original="#f1f1f2"></path><path fill="#d8d8d8" d="m22.415 19.581.06 21.507 14.5-8.371-.06-21.507z" opacity="1" data-original="#d8d8d8"></path><path fill="#f1f1f2" d="m22.671 19.73.061 21.506 14.5-8.371-.061-21.507z" opacity="1" data-original="#f1f1f2"></path><path fill="#d8d8d8" d="m22.928 19.878.061 21.507 14.5-8.372-.061-21.506z" opacity="1" data-original="#d8d8d8"></path><path fill="#f1f1f2" d="m23.185 20.026.06 21.507 14.5-8.371-.06-21.507z" opacity="1" data-original="#f1f1f2"></path><path fill="#d8d8d8" d="m23.442 20.175.06 21.506 14.5-8.371-.06-21.506z" opacity="1" data-original="#d8d8d8"></path><path fill="#f1f1f2" d="m23.698 20.323.061 21.507 14.5-8.372-.061-21.506z" opacity="1" data-original="#f1f1f2"></path><path fill="#d8d8d8" d="m23.955 20.472.061 21.506 14.5-8.371-.061-21.507z" opacity="1" data-original="#d8d8d8"></path><path fill="#f1f1f2" d="m24.212 20.62.06 21.506 14.5-8.37-.06-21.507z" opacity="1" data-original="#f1f1f2"></path><path fill="#f1f1f2" d="m24.469 20.768.06 21.507 14.5-8.371-.06-21.507z" opacity="1" data-original="#f1f1f2"></path><path fill="#f1f1f2" d="m24.726 20.917.06 21.506 14.5-8.371-.06-21.507z" opacity="1" data-original="#f1f1f2"></path><path fill="#6eba6e" d="m24.255 20.98.08 25.52 16.08-9.283-.08-25.52z" opacity="1" data-original="#6eba6e"></path><path fill="#75ca75" d="m19.055 17.958.08 25.52 5.2 3.022-.08-25.52z" opacity="1" data-original="#75ca75"></path><path fill="#465160" d="M23.184 39.097c0 .939-.67 1.316-1.484.847-.812-.47-1.474-1.617-1.466-2.548 0-.938.662-1.315 1.475-.846.82.47 1.475 1.617 1.475 2.547z" opacity="1" data-original="#465160"></path><path fill="#9ad898" d="m19.055 17.958 5.2 3.022 16.08-9.284-.26-.15-15.818 9.132-4.685-2.723L35.39 8.823l-.256-.149z" opacity="1" data-original="#9ad898" class=""></path><path fill="#ffffff" d="m23.527 22.829-.025 11.094c0 .168-.117.235-.26.15l-3.117-1.793a.567.567 0 0 1-.268-.452l.025-11.102c0-.16.117-.227.268-.143l3.126 1.793a.596.596 0 0 1 .251.453z" opacity="1" data-original="#ffffff" class=""></path><path fill="#bfbfbf" d="m23.257 22.773-.001.284-3.097-1.782v-.285z" opacity="1" data-original="#bfbfbf" class=""></path><path fill="#d8d8d8" d="M23.255 23.508v.13l-3.098-1.782v-.13zM23.253 24.41v.13l-3.098-1.783v-.13zM23.25 25.31v.131l-3.097-1.782v-.13zM23.249 26.212v.13l-3.097-1.782v-.13zM23.247 27.116v.126L20.15 25.46v-.127zM23.245 28.017v.126l-3.097-1.782v-.127zM23.243 28.918v.127l-3.097-1.783v-.126zM23.242 29.818v.13l-3.098-1.782v-.13z" opacity="1" data-original="#d8d8d8"></path><path fill="#bfbfbf" d="M23.234 33.346v.285l-3.097-1.783v-.284z" opacity="1" data-original="#bfbfbf" class=""></path><path fill="#d8d8d8" d="M23.236 32.522v.13l-3.097-1.782v-.13zM23.238 31.62v.131l-3.098-1.782v-.13zM23.24 30.72v.13l-3.098-1.783v-.13z" opacity="1" data-original="#d8d8d8"></path><path fill="#202a35" d="M21.714 36.551c.813.47 1.473 1.613 1.47 2.548-.002.935-.666 1.314-1.48.844-.814-.47-1.474-1.613-1.471-2.548.002-.935.667-1.314 1.48-.844zm-.009 2.92c.588.34 1.067.067 1.069-.61.002-.675-.474-1.499-1.062-1.838-.588-.34-1.067-.067-1.069.609-.002.676.474 1.5 1.062 1.84" opacity="1" data-original="#202a35" class=""></path><path fill="#465160" d="M28.152 27.387c.093-.055.168-.012.169.096v.393a.368.368 0 0 1-.167.291l-2.442 1.41c-.094.054-.17.011-.17-.096v-.394c0-.107.074-.236.167-.29zm-2.39 1.927 2.322-1.34-.001-.305-2.322 1.34z" opacity="1" data-original="#465160"></path><path fill="#f1f1f2" d="m25.76 29.01.002.304 2.322-1.34-.001-.305z" opacity="1" data-original="#f1f1f2"></path><path fill="#465160" d="M28.152 35.618c.093-.054.168-.012.169.096v.393a.368.368 0 0 1-.167.291l-2.442 1.41c-.094.054-.17.011-.17-.096v-.394c0-.107.074-.236.167-.29zm-2.39 1.927 2.322-1.34-.001-.304-2.322 1.34z" opacity="1" data-original="#465160"></path><path fill="#f1f1f2" d="m25.76 37.241.002.304 2.322-1.34-.001-.304z" opacity="1" data-original="#f1f1f2"></path></g></svg>