<svg xmlns="http://www.w3.org/2000/svg" version="1.1" xmlns:xlink="http://www.w3.org/1999/xlink" width="512" height="512" x="0" y="0" viewBox="0 0 512 512" style="enable-background:new 0 0 512 512" xml:space="preserve" class=""><g><path d="M15 158.533c8.284 0 15-6.716 15-15V30h113.533c8.284 0 15-6.716 15-15s-6.716-15-15-15H15C6.716 0 0 6.716 0 15v128.533c0 8.284 6.716 15 15 15zM143.533 482H30V368.467c0-8.284-6.716-15-15-15s-15 6.716-15 15V497c0 8.284 6.716 15 15 15h128.533c8.284 0 15-6.716 15-15s-6.716-15-15-15zM497 0H368.467c-8.284 0-15 6.716-15 15s6.716 15 15 15H482v113.533c0 8.284 6.716 15 15 15s15-6.716 15-15V15c0-8.284-6.716-15-15-15zM497 353.467c-8.284 0-15 6.716-15 15V482H368.467c-8.284 0-15 6.716-15 15s6.716 15 15 15H497c8.284 0 15-6.716 15-15V368.467c0-8.284-6.716-15-15-15z" fill="#000000" opacity="1" data-original="#000000" class=""></path><path d="M497 208.866c-99.45 0-154.787 80.334-176.733 80.334-8.834 0-4.084-21.604-1.836-28.457 3.234-9.705-4-19.743-14.23-19.743-13.572 0-24.029 12.251-38.502 29.206-11.917 13.962-29.926 35.061-41.832 35.061-19.345 0 7.819-63.423 13.416-74.692a15 15 0 0 0-13.416-21.708c-14.667 0-24.133 15.195-58.009 73.291-13.397 22.977-28.583 49.019-42.388 69.422-15.159 22.405-23.462 30.183-27.128 32.844-4.051-11.398-3.46-47.87 16.748-116.588 17.252-58.666 41.807-114.451 57.116-129.762 5.858-5.858 5.858-15.355 0-21.213-5.857-5.857-15.355-5.857-21.213 0-22.469 22.469-47.591 86.489-62.276 134.484C55.402 353.681 55.829 415.6 95.333 415.6c24.063 0 48.19-35.863 92.672-111.879 2.926 21.223 17.65 31.546 35.861 31.546 24.716 0 45.589-23.3 62.557-43.134 1.583 7.162 8.133 27.067 33.844 27.067 41.83 0 83.717-80.334 176.733-80.334 8.284 0 15-6.716 15-15s-6.716-15-15-15z" fill="#000000" opacity="1" data-original="#000000" class=""></path></g></svg>