<svg width="512" height="512" viewBox="0 0 512 512" fill="none" xmlns="http://www.w3.org/2000/svg">
<g clip-path="url(#clip0_3_146)">
<path d="M61.793 476.69H414.896V79.4483L335.448 0H61.793V476.69Z" fill="#EAF2FF"/>
<path d="M414.897 79.4483H335.448V0L414.897 79.4483Z" fill="#C2E5FA"/>
<path d="M379.586 441.38H203.034C200.693 441.38 198.448 440.45 196.792 438.794C195.137 437.139 194.207 434.893 194.207 432.552V361.931C194.207 359.59 195.137 357.345 196.792 355.689C198.448 354.034 200.693 353.104 203.034 353.104H379.586C381.927 353.104 384.172 354.034 385.828 355.689C387.483 357.345 388.413 359.59 388.413 361.931V432.552C388.413 434.893 387.483 437.139 385.828 438.794C384.172 440.45 381.927 441.38 379.586 441.38ZM211.862 423.724H370.758V370.759H211.862V423.724Z" fill="#FF754A"/>
<path d="M229.517 388.414H264.827V406.069H229.517V388.414ZM282.483 388.414H353.103V406.069H282.483V388.414Z" fill="#FF754A"/>
<path d="M264.828 282.483L317.789 229.521L441.375 353.108L388.414 406.069L264.828 282.483Z" fill="#E0E0DE"/>
<path d="M459.034 150.069C429.784 150.069 406.069 173.784 406.069 203.034V207.448L326.621 291.31L370.759 335.448L454.621 256H459.034C488.285 256 512 232.285 512 203.034C512 173.784 488.285 150.069 459.034 150.069Z" fill="#95573A"/>
<path d="M238.349 308.961L264.832 282.479L388.418 406.065L361.935 432.547L238.349 308.961Z" fill="#EBEBE9"/>
<path d="M480.733 154.745C444.16 247.233 387.017 291.387 348.789 313.478L370.759 335.448L454.621 256H459.035C483.984 255.97 505.531 238.53 510.759 214.134C515.987 189.738 503.478 164.999 480.734 154.746L480.733 154.745Z" fill="#8F4D2E"/>
<path d="M272.5 82.9793C275.263 77.2326 274.094 70.3702 269.586 65.8615C265.079 61.3528 258.215 60.1854 252.47 62.9484C251.436 60.0217 249.519 57.4876 246.985 55.6953C244.451 53.9029 241.423 52.9404 238.319 52.9404C235.215 52.9404 232.187 53.9029 229.653 55.6953C227.119 57.4876 225.203 60.0217 224.169 62.9484C221.367 61.6176 218.222 61.1873 215.166 61.7169C212.111 62.2465 209.294 63.7098 207.104 65.9057C204.913 68.1016 203.457 70.9221 202.936 73.9793C202.414 77.0366 202.852 80.1803 204.191 82.9782C201.264 84.0124 198.73 85.9285 196.937 88.4628C195.145 90.9971 194.183 94.0248 194.183 97.1288C194.183 100.233 195.145 103.261 196.937 105.795C198.73 108.329 201.264 110.245 204.191 111.279C201.465 117.022 202.65 123.859 207.15 128.345C211.65 132.832 218.487 133.999 224.22 131.258C225.255 134.185 227.171 136.719 229.705 138.512C232.239 140.304 235.267 141.267 238.371 141.267C241.475 141.267 244.503 140.304 247.037 138.512C249.571 136.719 251.488 134.185 252.522 131.258C258.263 133.983 265.099 132.798 269.586 128.298C274.074 123.798 275.242 116.961 272.5 111.228C275.408 110.182 277.922 108.265 279.7 105.737C281.477 103.209 282.431 100.194 282.431 97.1035C282.431 94.0132 281.477 90.9982 279.7 88.4703C277.922 85.9424 275.408 84.0248 272.5 82.9793Z" fill="#FFB531"/>
<path d="M158.896 247.172H247.172V264.828H158.896V247.172ZM105.931 282.483H211.862V300.138H105.931V282.483ZM105.931 211.862H291.31V229.517H105.931V211.862ZM105.931 317.793H158.896V335.448H105.931V317.793ZM105.931 353.103H176.551V370.759H105.931V353.103ZM105.931 388.414H176.551V406.069H105.931V388.414ZM105.931 423.724H176.551V441.379H105.931V423.724ZM105.931 247.172H141.241V264.828H105.931V247.172ZM176.551 317.793H211.862V335.448H176.551V317.793ZM176.551 167.724H211.862V185.379H176.551V167.724ZM229.517 167.724H300.138V185.379H229.517V167.724Z" fill="#76BEFF"/>
<path d="M209.849 130.349C208.539 123.989 206.587 117.778 204.022 111.811C202.589 115.084 202.389 118.764 203.46 122.173C204.531 125.581 206.802 128.485 209.849 130.349ZM203.582 110.919C201.087 105.268 198.06 99.8668 194.543 94.7886C193.974 98.1058 194.561 101.518 196.206 104.454C197.851 107.39 200.455 109.673 203.582 110.919Z" fill="#F98500"/>
</g>
<defs>
<clipPath id="clip0_3_146">
<rect width="512" height="512" fill="white"/>
</clipPath>
</defs>
</svg>
