<svg width="512" height="512" viewBox="0 0 512 512" fill="none" xmlns="http://www.w3.org/2000/svg">
<path d="M430 11.0299V500.982C430 507.066 424.795 512 418.365 512H55.6485C49.2168 512 44 507.066 44 500.982V11.0299C44 4.94538 49.2168 0 55.6485 0H131.2C131.582 2.83466 133.041 5.44014 135.304 7.32812C137.566 9.2161 140.478 10.257 143.492 10.2556H331.759C338.066 10.2556 343.283 5.79146 344.051 0H418.363C424.795 0 430 4.94538 430 11.0299Z" fill="#EAF2FF"/>
<path d="M394.34 146.02H114.66C112.363 146.02 110.161 145.124 108.536 143.528C106.912 141.932 106 139.767 106 137.51C106 135.253 106.912 133.088 108.536 131.493C110.161 129.897 112.363 129 114.66 129H394.34C396.637 129 398.839 129.897 400.463 131.493C402.088 133.088 403 135.253 403 137.51C403 139.767 402.088 141.932 400.463 143.528C398.839 145.124 396.637 146.02 394.34 146.02ZM121.94 475C119.682 475.001 117.512 474.134 115.894 472.585C114.276 471.036 113.339 468.927 113.281 466.708C113.223 464.489 114.05 462.335 115.585 460.707C117.12 459.078 119.242 458.104 121.498 457.991C127.793 457.668 133.991 456.205 139.812 453.812C139.587 451.517 139.657 449.204 140.018 446.927C142.195 432.98 149.154 419.866 159.612 410C169.563 400.614 178.936 402.336 184.39 407.081C189.402 411.442 191.301 418.377 189.227 424.749C185.15 437.276 177.407 448.332 167.391 456.866C169.941 455.916 172.165 454.541 172.955 454.028C177.357 451.165 183.933 447.634 190.202 450.013C191.912 450.662 194.73 452.228 196.411 455.807C197.063 455.63 197.848 455.347 198.661 454.931C203.493 452.453 208.079 449.537 212.359 446.22C216.356 443.124 221.656 442.594 226.191 444.839C229.938 446.695 232.461 450.077 233.172 454.015C237.186 451.945 240.938 449.418 244.351 446.486C248.981 442.508 255.865 442.254 260.717 445.882C274.904 456.484 297.139 454.543 316.864 451.892C321.609 451.253 325.97 454.514 326.618 459.171C327.266 463.828 323.951 468.119 319.211 468.756C297.177 471.72 272.265 473.769 253.134 461.446C248.31 465.227 243.03 468.408 237.412 470.917C235.785 471.645 231.973 473.35 227.511 472.505C222.819 471.62 219.151 468.314 217.321 463.744C213.899 466.043 210.34 468.14 206.664 470.024C204.261 471.255 195.838 475.019 188.372 471.773C186.328 470.893 184.536 469.533 183.153 467.813C182.95 467.94 182.736 468.075 182.512 468.221C169.295 476.816 155.988 477.05 147.405 469.197C139.542 472.521 131.084 474.544 122.397 474.989C122.245 474.997 122.092 475 121.94 475ZM171.836 422.065L171.605 422.279C166.13 427.451 161.946 433.797 159.381 440.822C164.804 435.438 169.128 429.056 171.836 422.065ZM207.489 259.897H206.317C204.021 259.897 201.818 259 200.194 257.404C198.57 255.808 197.657 253.644 197.657 251.387C197.657 249.13 198.57 246.965 200.194 245.369C201.818 243.773 204.021 242.877 206.317 242.877H207.489C209.786 242.877 211.988 243.773 213.612 245.369C215.236 246.965 216.149 249.13 216.149 251.387C216.149 253.644 215.236 255.808 213.612 257.404C211.988 259 209.786 259.897 207.489 259.897ZM234.903 259.897H233.731C231.435 259.897 229.232 259 227.608 257.404C225.984 255.808 225.071 253.644 225.071 251.387C225.071 249.13 225.984 246.965 227.608 245.369C229.232 243.773 231.435 242.877 233.731 242.877H234.903C237.199 242.877 239.402 243.773 241.026 245.369C242.65 246.965 243.563 249.13 243.563 251.387C243.563 253.644 242.65 255.808 241.026 257.404C239.402 259 237.199 259.897 234.903 259.897ZM262.315 259.897H261.144C258.847 259.897 256.645 259 255.021 257.404C253.396 255.808 252.484 253.644 252.484 251.387C252.484 249.13 253.396 246.965 255.021 245.369C256.645 243.773 258.847 242.877 261.144 242.877H262.315C264.612 242.877 266.815 243.773 268.439 245.369C270.063 246.965 270.976 249.13 270.976 251.387C270.976 253.644 270.063 255.808 268.439 257.404C266.815 259 264.612 259.897 262.315 259.897ZM289.729 259.897H288.558C286.261 259.897 284.059 259 282.434 257.404C280.81 255.808 279.898 253.644 279.898 251.387C279.898 249.13 280.81 246.965 282.434 245.369C284.059 243.773 286.261 242.877 288.558 242.877H289.729C292.026 242.877 294.229 243.773 295.853 245.369C297.477 246.965 298.39 249.13 298.39 251.387C298.39 253.644 297.477 255.808 295.853 257.404C294.229 259 292.026 259.897 289.729 259.897ZM391.789 226.519H203.179C200.882 226.519 198.679 225.622 197.055 224.026C195.431 222.43 194.519 220.266 194.519 218.009C194.519 215.752 195.431 213.587 197.055 211.991C198.679 210.395 200.882 209.499 203.179 209.499H391.789C394.086 209.499 396.288 210.395 397.912 211.991C399.536 213.587 400.449 215.752 400.449 218.009C400.449 220.266 399.536 222.43 397.912 224.026C396.288 225.622 394.086 226.519 391.789 226.519ZM254.015 194.561H203.179C200.882 194.561 198.679 193.665 197.055 192.069C195.431 190.473 194.519 188.308 194.519 186.051C194.519 183.794 195.431 181.63 197.055 180.034C198.679 178.438 200.882 177.541 203.179 177.541H254.015C256.312 177.541 258.515 178.438 260.139 180.034C261.763 181.63 262.675 183.794 262.675 186.051C262.675 188.308 261.763 190.473 260.139 192.069C258.515 193.665 256.312 194.561 254.015 194.561ZM207.489 373.609H206.317C204.021 373.609 201.818 372.712 200.194 371.116C198.57 369.52 197.657 367.355 197.657 365.098C197.657 362.841 198.57 360.677 200.194 359.081C201.818 357.485 204.021 356.588 206.317 356.588H207.489C209.786 356.588 211.988 357.485 213.612 359.081C215.236 360.677 216.149 362.841 216.149 365.098C216.149 367.355 215.236 369.52 213.612 371.116C211.988 372.712 209.786 373.609 207.489 373.609ZM234.903 373.609H233.731C231.435 373.609 229.232 372.712 227.608 371.116C225.984 369.52 225.071 367.355 225.071 365.098C225.071 362.841 225.984 360.677 227.608 359.081C229.232 357.485 231.435 356.588 233.731 356.588H234.903C237.199 356.588 239.402 357.485 241.026 359.081C242.65 360.677 243.563 362.841 243.563 365.098C243.563 367.355 242.65 369.52 241.026 371.116C239.402 372.712 237.199 373.609 234.903 373.609ZM262.315 373.609H261.144C258.847 373.609 256.645 372.712 255.021 371.116C253.396 369.52 252.484 367.355 252.484 365.098C252.484 362.841 253.396 360.677 255.021 359.081C256.645 357.485 258.847 356.588 261.144 356.588H262.315C264.612 356.588 266.815 357.485 268.439 359.081C270.063 360.677 270.976 362.841 270.976 365.098C270.976 367.355 270.063 369.52 268.439 371.116C266.815 372.712 264.612 373.609 262.315 373.609ZM289.729 373.609H288.558C286.261 373.609 284.059 372.712 282.434 371.116C280.81 369.52 279.898 367.355 279.898 365.098C279.898 362.841 280.81 360.677 282.434 359.081C284.059 357.485 286.261 356.588 288.558 356.588H289.729C292.026 356.588 294.229 357.485 295.853 359.081C297.477 360.677 298.39 362.841 298.39 365.098C298.39 367.355 297.477 369.52 295.853 371.116C294.229 372.712 292.026 373.609 289.729 373.609ZM391.789 340.23H203.179C200.882 340.23 198.679 339.334 197.055 337.738C195.431 336.142 194.519 333.977 194.519 331.72C194.519 329.463 195.431 327.299 197.055 325.703C198.679 324.107 200.882 323.21 203.179 323.21H391.789C394.086 323.21 396.288 324.107 397.912 325.703C399.536 327.299 400.449 329.463 400.449 331.72C400.449 333.977 399.536 336.142 397.912 337.738C396.288 339.334 394.086 340.23 391.789 340.23ZM254.015 308.273H203.179C200.882 308.273 198.679 307.376 197.055 305.78C195.431 304.184 194.519 302.02 194.519 299.763C194.519 297.506 195.431 295.341 197.055 293.745C198.679 292.149 200.882 291.253 203.179 291.253H254.015C256.312 291.253 258.515 292.149 260.139 293.745C261.763 295.341 262.675 297.506 262.675 299.763C262.675 302.02 261.763 304.184 260.139 305.78C258.515 307.376 256.312 308.273 254.015 308.273Z" fill="#76BEFF"/>
<path d="M157.436 238.413H113.564C112.571 238.413 111.587 238.223 110.669 237.853C109.751 237.483 108.918 236.941 108.215 236.257C107.513 235.574 106.955 234.762 106.575 233.869C106.195 232.976 106 232.019 106 231.052V188.361C106 187.394 106.195 186.437 106.575 185.544C106.955 184.651 107.513 183.839 108.215 183.155C108.918 182.472 109.751 181.93 110.669 181.56C111.587 181.19 112.571 181 113.564 181H157.436C158.429 181 159.413 181.19 160.331 181.56C161.249 181.93 162.082 182.472 162.785 183.155C163.487 183.839 164.045 184.651 164.425 185.544C164.805 186.437 165 187.394 165 188.361V231.052C165 232.019 164.804 232.976 164.424 233.869C164.044 234.762 163.487 235.573 162.784 236.257C162.082 236.94 161.248 237.482 160.33 237.852C159.413 238.222 158.429 238.413 157.436 238.413Z" fill="#76BEFF"/>
<path d="M113.564 353H157.436C158.429 353 159.413 352.81 160.331 352.44C161.249 352.07 162.082 351.528 162.785 350.845C163.487 350.161 164.045 349.349 164.425 348.456C164.805 347.563 165 346.606 165 345.639V302.948C165 301.981 164.805 301.024 164.425 300.131C164.045 299.238 163.487 298.426 162.785 297.743C162.082 297.059 161.249 296.517 160.331 296.147C159.413 295.777 158.429 295.587 157.436 295.587H113.564C112.571 295.587 111.587 295.777 110.669 296.147C109.751 296.517 108.918 297.059 108.215 297.743C107.513 298.426 106.955 299.238 106.575 300.131C106.195 301.024 106 301.981 106 302.948V345.639C106 346.606 106.195 347.563 106.575 348.456C106.955 349.349 107.513 350.161 108.215 350.845C108.918 351.528 109.751 352.07 110.669 352.44C111.587 352.81 112.571 353 113.564 353Z" fill="#76BEFF"/>
<path d="M297.652 57.826H176.932C163.736 57.826 153 47.091 153 33.894V7.726C153 5.67694 153.814 3.7118 155.263 2.26289C156.712 0.813988 158.677 0 160.726 0C162.775 0 164.74 0.813988 166.189 2.26289C167.638 3.7118 168.452 5.67694 168.452 7.726V33.895C168.452 38.57 172.256 42.374 176.931 42.374H297.651C302.326 42.374 306.13 38.57 306.13 33.895V7.726C306.13 5.67694 306.944 3.7118 308.393 2.26289C309.842 0.813988 311.807 0 313.856 0C315.905 0 317.87 0.813988 319.319 2.26289C320.768 3.7118 321.582 5.67694 321.582 7.726V33.895C321.583 47.091 310.847 57.826 297.652 57.826Z" fill="#FFCA45"/>
</svg>
