<svg width="512" height="512" viewBox="0 0 512 512" fill="none" xmlns="http://www.w3.org/2000/svg">
<g clip-path="url(#clip0_5_8)">
<path d="M453.981 369.93C373.135 501.757 185.004 525.588 74.0708 417.52C45.9118 306.266 17.7538 195.013 -10.4092 83.76C-13.2592 72.48 -5.54917 60.81 6.81083 57.68C114.673 30.376 222.538 3.08005 330.401 -24.22C342.771 -27.35 355.101 -20.75 357.961 -9.46995C389.962 116.998 421.974 243.463 453.981 369.93Z" fill="#EAF2FF"/>
<path d="M10.9248 163.739C92.0793 32.1016 280.266 8.71128 390.945 117.039C418.844 228.358 446.741 339.677 474.643 450.996C477.467 462.282 469.73 473.934 457.362 477.035C349.437 504.087 241.508 531.13 133.581 558.177C121.204 561.278 108.89 554.649 106.056 543.363C74.3513 416.82 42.6356 290.281 10.9248 163.739Z" fill="#EAF2FF"/>
<path d="M314.371 95.9719L86.8778 153.55C84.9494 154.038 82.9062 153.74 81.1975 152.721C79.4889 151.703 78.2548 150.047 77.7668 148.119C77.2788 146.19 77.5769 144.147 78.5954 142.439C79.6139 140.73 81.2694 139.496 83.1978 139.008L310.691 81.4299C311.646 81.1883 312.639 81.1371 313.613 81.2792C314.588 81.4214 315.525 81.7541 316.371 82.2584C317.217 82.7628 317.956 83.4288 318.544 84.2185C319.133 85.0081 319.56 85.906 319.802 86.8609C320.043 87.8157 320.095 88.8088 319.952 89.7834C319.81 90.7581 319.478 91.6951 318.973 92.5412C318.469 93.3872 317.803 94.1256 317.013 94.7143C316.224 95.3029 315.326 95.7303 314.371 95.9719ZM328.357 151.23L100.864 208.808C98.9354 209.296 96.8922 208.998 95.1835 207.979C94.3375 207.475 93.5991 206.809 93.0104 206.019C92.4218 205.23 91.9945 204.332 91.7528 203.377C91.5112 202.422 91.46 201.429 91.6022 200.454C91.7443 199.48 92.0771 198.543 92.5814 197.697C93.5999 195.988 95.2554 194.754 97.1838 194.266L324.677 136.688C325.632 136.446 326.625 136.395 327.599 136.537C328.574 136.679 329.511 137.012 330.357 137.516C331.203 138.021 331.942 138.687 332.53 139.476C333.119 140.266 333.546 141.164 333.788 142.119C334.029 143.074 334.081 144.067 333.938 145.041C333.796 146.016 333.464 146.953 332.959 147.799C332.455 148.645 331.789 149.384 330.999 149.972C330.21 150.561 329.312 150.988 328.357 151.23ZM343.017 209.154L115.524 266.732C113.595 267.22 111.552 266.922 109.844 265.903C108.135 264.885 106.901 263.229 106.413 261.301C105.925 259.372 106.223 257.329 107.241 255.621C108.26 253.912 109.915 252.678 111.844 252.19L339.337 194.612C340.292 194.37 341.285 194.319 342.259 194.461C343.234 194.603 344.171 194.936 345.017 195.44C345.863 195.945 346.602 196.611 347.19 197.4C347.779 198.19 348.206 199.088 348.448 200.043C348.689 200.998 348.741 201.991 348.598 202.965C348.456 203.94 348.124 204.877 347.619 205.723C347.115 206.569 346.449 207.308 345.659 207.896C344.87 208.485 343.972 208.912 343.017 209.154ZM355.223 257.383L127.73 314.961C125.801 315.449 123.758 315.151 122.05 314.132C120.341 313.114 119.107 311.458 118.619 309.53C118.131 307.602 118.429 305.558 119.447 303.85C120.466 302.141 122.121 300.907 124.05 300.419L351.543 242.841C353.471 242.353 355.514 242.651 357.223 243.669C358.932 244.688 360.166 246.344 360.654 248.272C361.142 250.2 360.844 252.244 359.825 253.952C358.807 255.661 357.151 256.895 355.223 257.383Z" fill="#76BEFF"/>
<path d="M243.117 402.32C252.384 438.935 230.134 476.266 193.518 485.533C156.903 494.8 119.572 472.55 110.305 435.934C101.038 399.318 123.289 361.988 159.904 352.721C196.519 343.454 233.85 365.704 243.117 402.32Z" fill="#36B990"/>
<path d="M172.573 455.762C171.618 456.005 170.625 456.057 169.65 455.914C168.676 455.772 167.739 455.439 166.893 454.934L132.879 434.66C131.17 433.641 129.936 431.986 129.448 430.057C128.96 428.129 129.258 426.086 130.276 424.377C131.295 422.668 132.95 421.435 134.878 420.947C136.807 420.459 138.85 420.757 140.558 421.775L168.13 438.21L203.39 379.053C204.422 377.372 206.075 376.166 207.99 375.694C209.905 375.223 211.929 375.525 213.623 376.535C215.317 377.545 216.545 379.181 217.042 381.09C217.538 382.999 217.263 385.026 216.275 386.734L177.175 452.333C176.672 453.179 176.006 453.918 175.216 454.506C174.426 455.095 173.528 455.521 172.573 455.762Z" fill="white"/>
<path d="M374.975 335.422L271.246 361.676C270.291 361.918 269.298 361.969 268.323 361.827C267.349 361.685 266.412 361.352 265.566 360.848C264.72 360.343 263.981 359.677 263.393 358.888C262.804 358.098 262.377 357.2 262.135 356.245C261.893 355.29 261.842 354.297 261.984 353.323C262.126 352.348 262.459 351.411 262.964 350.565C263.468 349.719 264.134 348.98 264.924 348.392C265.713 347.803 266.611 347.376 267.566 347.134L371.295 320.88C373.223 320.392 375.267 320.69 376.975 321.709C378.684 322.727 379.918 324.383 380.406 326.311C380.894 328.239 380.596 330.283 379.577 331.991C378.559 333.7 376.903 334.934 374.975 335.422ZM386.589 381.309L282.86 407.562C281.905 407.804 280.912 407.855 279.937 407.713C278.963 407.571 278.026 407.238 277.18 406.734C276.334 406.229 275.595 405.563 275.007 404.774C274.418 403.984 273.991 403.086 273.749 402.131C273.507 401.176 273.456 400.183 273.598 399.209C273.74 398.234 274.073 397.297 274.577 396.451C275.082 395.605 275.748 394.866 276.538 394.278C277.327 393.689 278.225 393.262 279.18 393.02L382.909 366.766C383.864 366.524 384.857 366.473 385.832 366.615C386.806 366.758 387.744 367.09 388.59 367.595C389.436 368.099 390.174 368.765 390.763 369.555C391.351 370.345 391.779 371.243 392.02 372.198C392.262 373.153 392.313 374.146 392.171 375.12C392.029 376.095 391.696 377.032 391.192 377.878C390.687 378.724 390.021 379.463 389.232 380.051C388.442 380.64 387.544 381.067 386.589 381.309Z" fill="#76BEFF"/>
<path d="M497.652 83.4579C490.791 90.3371 482.033 95.0126 472.5 96.8859C455.742 100.167 440.185 107.705 426.849 118.255L393.509 84.9149C394.968 83.0587 396.366 81.1557 397.702 79.2089C406.06 67.1459 412.063 53.5479 414.977 39.0659C416.898 29.5286 421.629 20.7841 428.56 13.9569C447.921 -5.17709 480.115 -4.54809 498.74 15.2929C501.876 18.6338 504.529 22.3965 506.624 26.4719C516.065 44.8929 513.074 68.0359 497.652 83.4579Z" fill="#A54B0E"/>
<path d="M492.879 68.7858C480.482 81.1828 464.272 81.5858 448.876 87.8598C436.166 93.0388 422.729 104.236 410.211 91.7178L397.702 79.2088C406.057 67.1488 412.08 53.4658 414.977 39.0658C417.919 24.4888 427.631 11.7128 440.966 5.10575C464.671 -6.63825 494.491 2.87475 506.625 26.4718C508.979 41.4278 504.397 57.2668 492.879 68.7858Z" fill="#BF6015"/>
<path d="M431.594 146.688L431.523 146.759L365.055 80.2908L365.126 80.2198C366.873 78.4688 368.989 77.1304 371.32 76.3028C373.132 75.6505 375.044 75.3179 376.97 75.3198C381.255 75.3198 385.54 76.9458 388.814 80.2198L431.594 123C436.324 127.73 437.64 134.589 435.518 140.501C434.683 142.828 433.343 144.941 431.594 146.688Z" fill="#6D2929"/>
<path d="M435.518 140.501L371.32 76.3028C373.132 75.6505 375.044 75.3179 376.97 75.3198C381.255 75.3198 385.54 76.9458 388.814 80.2198L431.594 123C436.324 127.73 437.639 134.589 435.518 140.501Z" fill="#844242"/>
<path d="M415.861 195.655L410.381 201.135C409.238 202.283 407.903 203.221 406.435 203.907C401.252 206.347 394.874 205.427 390.582 201.135L310.679 121.232C306.387 116.94 305.468 110.562 307.907 105.379C308.593 103.912 309.531 102.576 310.679 101.433L316.159 95.9531L415.861 195.655Z" fill="#4D5961"/>
<path d="M415.861 195.655L410.381 201.135C409.238 202.283 407.902 203.221 406.435 203.907L307.907 105.379C308.593 103.912 309.531 102.576 310.679 101.433L316.159 95.9531L415.861 195.655Z" fill="#454545"/>
<path d="M435.978 207.358C431.99 210.667 427.988 210.667 424 207.358L304.456 87.814C300.206 83.564 301.401 79.3 304.668 75.652C308.868 70.985 316.491 67.336 320.486 66.071C334.494 61.623 350.206 65.442 360.6 75.836L435.978 151.214C439.056 154.284 441.605 157.842 443.523 161.743C450.827 176.57 448.317 195.019 435.978 207.358Z" fill="#D88521"/>
<path d="M431.912 190.918C427.924 194.227 423.922 194.227 419.934 190.918L304.668 75.652C308.868 70.985 316.491 67.336 320.486 66.071C334.494 61.623 350.206 65.442 360.6 75.836L435.978 151.214C439.056 154.284 441.605 157.842 443.523 161.743C443.813 172.271 439.945 182.885 431.912 190.918Z" fill="#FEA832"/>
</g>
<defs>
<clipPath id="clip0_5_8">
<rect width="512" height="512" fill="white"/>
</clipPath>
</defs>
</svg>
