<?xml version="1.0" encoding="UTF-8"?>
<svg xmlns="http://www.w3.org/2000/svg" xmlns:xlink="http://www.w3.org/1999/xlink" width="100pt" height="100pt" viewBox="0 0 100 100" version="1.1">
<g id="surface7915142">
<path style=" stroke:none;fill-rule:nonzero;fill:rgb(80.000001%,80.000001%,80.000001%);fill-opacity:1;" d="M 51.042969 94.085938 L 14.582031 72.542969 L 14.582031 29.542969 L 51.042969 7.996094 L 87.5 29.542969 L 87.5 72.542969 Z M 18.75 70.167969 L 51.042969 89.246094 L 83.332031 70.167969 L 83.332031 31.917969 L 51.042969 12.835938 L 18.75 31.917969 Z M 18.75 70.167969 "/>
<path style=" stroke:none;fill-rule:nonzero;fill:rgb(80.000001%,80.000001%,80.000001%);fill-opacity:1;" d="M 58.332031 11.457031 C 58.332031 15.484375 55.070312 18.75 51.042969 18.75 C 47.015625 18.75 43.75 15.484375 43.75 11.457031 C 43.75 7.429688 47.015625 4.167969 51.042969 4.167969 C 55.070312 4.167969 58.332031 7.429688 58.332031 11.457031 Z M 58.332031 11.457031 "/>
<path style=" stroke:none;fill-rule:nonzero;fill:rgb(80.000001%,80.000001%,80.000001%);fill-opacity:1;" d="M 58.332031 90.625 C 58.332031 94.652344 55.070312 97.917969 51.042969 97.917969 C 47.015625 97.917969 43.75 94.652344 43.75 90.625 C 43.75 86.597656 47.015625 83.332031 51.042969 83.332031 C 55.070312 83.332031 58.332031 86.597656 58.332031 90.625 Z M 58.332031 90.625 "/>
<path style=" stroke:none;fill-rule:nonzero;fill:rgb(80.000001%,80.000001%,80.000001%);fill-opacity:1;" d="M 25 69.792969 C 25 73.820312 21.734375 77.082031 17.707031 77.082031 C 13.679688 77.082031 10.417969 73.820312 10.417969 69.792969 C 10.417969 65.765625 13.679688 62.5 17.707031 62.5 C 21.734375 62.5 25 65.765625 25 69.792969 Z M 25 69.792969 "/>
<path style=" stroke:none;fill-rule:nonzero;fill:rgb(80.000001%,80.000001%,80.000001%);fill-opacity:1;" d="M 91.667969 69.792969 C 91.667969 73.820312 88.402344 77.082031 84.375 77.082031 C 80.347656 77.082031 77.082031 73.820312 77.082031 69.792969 C 77.082031 65.765625 80.347656 62.5 84.375 62.5 C 88.402344 62.5 91.667969 65.765625 91.667969 69.792969 Z M 91.667969 69.792969 "/>
<path style=" stroke:none;fill-rule:nonzero;fill:rgb(80.000001%,80.000001%,80.000001%);fill-opacity:1;" d="M 25 32.292969 C 25 36.320312 21.734375 39.582031 17.707031 39.582031 C 13.679688 39.582031 10.417969 36.320312 10.417969 32.292969 C 10.417969 28.265625 13.679688 25 17.707031 25 C 21.734375 25 25 28.265625 25 32.292969 Z M 25 32.292969 "/>
<path style=" stroke:none;fill-rule:nonzero;fill:rgb(80.000001%,80.000001%,80.000001%);fill-opacity:1;" d="M 91.667969 32.292969 C 91.667969 36.320312 88.402344 39.582031 84.375 39.582031 C 80.347656 39.582031 77.082031 36.320312 77.082031 32.292969 C 77.082031 28.265625 80.347656 25 84.375 25 C 88.402344 25 91.667969 28.265625 91.667969 32.292969 Z M 91.667969 32.292969 "/>
<path style=" stroke:none;fill-rule:nonzero;fill:rgb(80.000001%,80.000001%,80.000001%);fill-opacity:1;" d="M 89 72.917969 L 13.082031 72.917969 L 51.042969 6.203125 Z M 20.25 68.75 L 81.832031 68.75 L 51.042969 14.628906 Z M 20.25 68.75 "/>
</g>
</svg>
