<svg width="77" height="110" viewBox="0 0 77 110" fill="none" xmlns="http://www.w3.org/2000/svg">
<path d="M6.95312 104H3.27344L3.29688 101.469H6.95312C7.94531 101.469 8.77734 101.25 9.44922 100.812C10.1211 100.367 10.6289 99.7305 10.9727 98.9023C11.3164 98.0664 11.4883 97.0664 11.4883 95.9023V95.0234C11.4883 94.125 11.3906 93.332 11.1953 92.6445C11 91.957 10.7109 91.3789 10.3281 90.9102C9.95312 90.4414 9.48828 90.0859 8.93359 89.8438C8.37891 89.6016 7.74219 89.4805 7.02344 89.4805H3.20312V86.9375H7.02344C8.16406 86.9375 9.20312 87.1289 10.1406 87.5117C11.0859 87.8945 11.9023 88.4453 12.5898 89.1641C13.2852 89.875 13.8164 90.7266 14.1836 91.7188C14.5586 92.7109 14.7461 93.8203 14.7461 95.0469V95.9023C14.7461 97.1211 14.5586 98.2305 14.1836 99.2305C13.8164 100.223 13.2852 101.074 12.5898 101.785C11.9023 102.496 11.082 103.043 10.1289 103.426C9.17578 103.809 8.11719 104 6.95312 104ZM5.07812 86.9375V104H1.85547V86.9375H5.07812ZM22.9492 104.234C21.9883 104.234 21.125 104.078 20.3594 103.766C19.5938 103.453 18.9414 103.02 18.4023 102.465C17.8711 101.902 17.4609 101.25 17.1719 100.508C16.8906 99.7578 16.75 98.9531 16.75 98.0938V97.625C16.75 96.6484 16.8906 95.7617 17.1719 94.9648C17.4531 94.1602 17.8516 93.4688 18.3672 92.8906C18.8828 92.3125 19.5 91.8672 20.2188 91.5547C20.9375 91.2422 21.7305 91.0859 22.5977 91.0859C23.4961 91.0859 24.2891 91.2383 24.9766 91.543C25.6641 91.8398 26.2383 92.2617 26.6992 92.8086C27.1602 93.3555 27.5078 94.0117 27.7422 94.7773C27.9766 95.5352 28.0938 96.375 28.0938 97.2969V98.5977H18.1562V96.4648H25.0469V96.2305C25.0312 95.7383 24.9375 95.2891 24.7656 94.8828C24.5938 94.4688 24.3281 94.1406 23.9688 93.8984C23.6094 93.6484 23.1445 93.5234 22.5742 93.5234C22.1133 93.5234 21.7109 93.625 21.3672 93.8281C21.0312 94.0234 20.75 94.3047 20.5234 94.6719C20.3047 95.0312 20.1406 95.4609 20.0312 95.9609C19.9219 96.4609 19.8672 97.0156 19.8672 97.625V98.0938C19.8672 98.625 19.9375 99.1172 20.0781 99.5703C20.2266 100.023 20.4414 100.418 20.7227 100.754C21.0117 101.082 21.3555 101.34 21.7539 101.527C22.1602 101.707 22.6211 101.797 23.1367 101.797C23.7852 101.797 24.3711 101.672 24.8945 101.422C25.4258 101.164 25.8867 100.785 26.2773 100.285L27.8359 101.902C27.5703 102.293 27.2109 102.668 26.7578 103.027C26.3125 103.387 25.7734 103.68 25.1406 103.906C24.5078 104.125 23.7773 104.234 22.9492 104.234ZM41.7227 93.9805V96.5117H32.7461V93.9805H41.7227ZM33.625 86.9375V104H30.4023V86.9375H33.625ZM44.1133 86.9375V104H40.8906V86.9375H44.1133ZM56.8867 86.9375H60.1094V98.2695C60.1094 99.5742 59.8281 100.672 59.2656 101.562C58.7031 102.445 57.9375 103.113 56.9688 103.566C56 104.012 54.8984 104.234 53.6641 104.234C52.4141 104.234 51.3008 104.012 50.3242 103.566C49.3477 103.113 48.582 102.445 48.0273 101.562C47.4727 100.672 47.1953 99.5742 47.1953 98.2695V86.9375H50.418V98.2695C50.418 99.0664 50.5508 99.7188 50.8164 100.227C51.082 100.727 51.457 101.098 51.9414 101.34C52.4258 101.582 53 101.703 53.6641 101.703C54.3359 101.703 54.9102 101.582 55.3867 101.34C55.8711 101.098 56.2422 100.727 56.5 100.227C56.7578 99.7188 56.8867 99.0664 56.8867 98.2695V86.9375ZM69.707 96.3945H65.3477L65.3242 94.1211H69.0625C69.7031 94.1211 70.2383 94.0312 70.668 93.8516C71.0977 93.6719 71.4219 93.4102 71.6406 93.0664C71.8672 92.7227 71.9805 92.3047 71.9805 91.8125C71.9805 91.2656 71.875 90.8203 71.6641 90.4766C71.4609 90.1328 71.1406 89.8828 70.7031 89.7266C70.2656 89.5625 69.7109 89.4805 69.0391 89.4805H66.3906V104H63.168V86.9375H69.0391C70.0078 86.9375 70.8711 87.0312 71.6289 87.2188C72.3945 87.3984 73.043 87.6797 73.5742 88.0625C74.1055 88.4453 74.5078 88.9258 74.7812 89.5039C75.0625 90.082 75.2031 90.7695 75.2031 91.5664C75.2031 92.2695 75.0391 92.918 74.7109 93.5117C74.3906 94.0977 73.8945 94.5742 73.2227 94.9414C72.5586 95.3086 71.7148 95.5195 70.6914 95.5742L69.707 96.3945ZM69.5664 104H64.3984L65.7461 101.469H69.5664C70.207 101.469 70.7344 101.363 71.1484 101.152C71.5703 100.941 71.8828 100.652 72.0859 100.285C72.2969 99.9102 72.4023 99.4805 72.4023 98.9961C72.4023 98.4648 72.3086 98.0039 72.1211 97.6133C71.9414 97.2227 71.6523 96.9219 71.2539 96.7109C70.8633 96.5 70.3477 96.3945 69.707 96.3945H66.3555L66.3789 94.1211H70.6445L71.3828 95C72.3672 95.0078 73.168 95.2031 73.7852 95.5859C74.4102 95.9688 74.8711 96.4609 75.168 97.0625C75.4648 97.6641 75.6133 98.3125 75.6133 99.0078C75.6133 100.102 75.375 101.02 74.8984 101.762C74.4297 102.504 73.7422 103.062 72.8359 103.438C71.9375 103.812 70.8477 104 69.5664 104Z" fill="white"/>
<path d="M72.5 10C72.5 4.47715 68.0229 0 62.5 0H10C4.47715 0 0 4.47715 0 10V62.5C0 68.0229 4.47715 72.5 10 72.5H62.5C68.0229 72.5 72.5 68.0229 72.5 62.5V10ZM56.6688 36C54.6 36 53.05 34.9521 52.2782 33.3771L43.7563 35.4793C43.7563 35.7429 43.7563 36.0064 43.7563 36.0064C43.7563 38.3657 42.7251 40.4679 41.1751 41.7793L47.3751 52.0136C47.8875 51.75 48.4063 51.75 48.9251 51.75C51.7657 51.75 54.0939 54.1157 54.0939 57.0021C54.0939 59.8886 51.7657 62.2543 48.9251 62.2543C46.0845 62.2543 43.7563 59.8886 43.7563 57.0021C43.7563 55.6907 44.2751 54.3793 45.3063 53.325L39.1063 43.0907C38.0751 43.6179 37.0376 43.875 36.0063 43.875C34.9751 43.875 33.9376 43.6114 33.1657 43.3479L26.9657 53.5886C27.7376 54.3729 28.2563 55.6907 28.2563 57.0021C28.2563 59.8886 25.9345 62.2543 23.0875 62.2543C20.2469 62.2543 17.9188 59.8886 17.9188 57.0021C17.9188 54.1157 20.2406 51.75 23.0875 51.75C23.6063 51.75 24.1188 51.75 24.6376 52.0136L30.8375 41.7793C29.2875 40.4679 28.2563 38.3657 28.2563 36.0064C28.2563 35.7429 28.2563 35.4793 28.2563 35.4793L19.7345 33.3771C18.9563 34.9521 17.1533 36 15.3439 36C12.5033 36 10.1751 33.6407 10.1751 30.7479C10.1751 27.8614 12.4969 25.4957 15.3439 25.4957C18.1845 25.4957 20.5127 27.855 20.5127 30.7479L29.0218 32.85C30.0531 30.4907 32.1218 28.6521 34.7031 28.3886V19.9864C32.3812 19.4593 30.8249 17.3636 30.8249 14.9979C30.8249 12.1114 33.1467 9.74571 35.9937 9.74571C38.8343 9.74571 41.1624 12.105 41.1624 14.9979C41.1624 17.3571 39.6124 19.4593 37.2843 19.9864V28.125C39.8655 28.6521 41.9343 30.2271 42.9655 32.5864L51.5 30.7479C51.5 27.8614 53.8282 25.4957 56.6688 25.4957C59.5094 25.4957 61.8376 27.855 61.8376 30.7479C61.8312 33.6407 59.5094 36 56.6688 36Z" fill="white"/>
</svg>
