<svg width="12" height="12" viewBox="0 0 12 12" fill="none" xmlns="http://www.w3.org/2000/svg">
<path d="M6.6933 5.99986L10.2089 1.80924C10.2679 1.73959 10.2183 1.63379 10.1272 1.63379H9.05848C8.99553 1.63379 8.93526 1.66191 8.89375 1.71013L5.99419 5.16682L3.09464 1.71013C3.05446 1.66191 2.99419 1.63379 2.92991 1.63379H1.86116C1.77009 1.63379 1.72053 1.73959 1.77946 1.80924L5.29509 5.99986L1.77946 10.1905C1.76626 10.206 1.75779 10.225 1.75506 10.2452C1.75233 10.2654 1.75545 10.2859 1.76405 10.3044C1.77265 10.3229 1.78637 10.3385 1.80359 10.3494C1.8208 10.3603 1.84078 10.366 1.86116 10.3659H2.92991C2.99285 10.3659 3.05312 10.3378 3.09464 10.2896L5.99419 6.8329L8.89375 10.2896C8.93392 10.3378 8.99419 10.3659 9.05848 10.3659H10.1272C10.2183 10.3659 10.2679 10.2601 10.2089 10.1905L6.6933 5.99986Z" fill="black"/>
</svg>
