<svg width="24" height="24" viewBox="0 0 24 24" fill="none" xmlns="http://www.w3.org/2000/svg">
<g clip-path="url(#clip0_100_5)">
<path d="M23.9917 11.9766C23.9917 12.8203 23.3667 13.4813 22.6583 13.4813H21.325L21.3542 20.9906C21.3542 21.1172 21.3458 21.2437 21.3333 21.3703V22.125C21.3333 23.1609 20.5875 24 19.6667 24L19.4167 23.7422V21.6562C20.325 19.9969 20.3958 15.0938 19.4167 19.1953L18.3958 17.4141L15.875 16.9688C14.9542 16.9688 14.6667 23.1609 14.6667 22.125V21V18C14.6667 17.1703 14.0708 16.5 13.3333 16.5H10.6667C9.92917 16.5 9.33333 17.1703 9.33333 18V21V22.125C9.33333 23.1609 8.5875 24 7.66667 24H6.66667H5.3375C5.275 24 5.2125 23.9953 5.15 23.9906C5.1 23.9953 5.05 24 5 24H4.33333C3.4125 24 2.66667 23.1609 2.66667 22.125V16.875C2.66667 16.8328 2.66667 16.7859 2.67083 16.7438V13.4813H1.33333C0.583333 13.4813 0 12.825 0 11.9766C0 11.5547 0.125 11.1797 0.416667 10.8516L11.1 0.375C11.3917 0.046875 11.725 0 12.0167 0C12.3083 0 12.6417 0.09375 12.8917 0.328125L23.5333 10.8516C23.8667 11.1797 24.0333 11.5547 23.9917 11.9766Z" fill="black" fill-opacity="0.3"/>
<path d="M24.8704 15.7809C24.8704 16.3576 24.4428 16.8094 23.9583 16.8094H23.0461L23.0661 21.9428C23.0661 22.0293 23.0604 22.1158 23.0518 22.2024V22.7183C23.0518 23.4264 22.5416 24 21.9117 24H21.4556C21.4243 24 21.3929 24 21.3616 23.9968C21.3217 24 21.2818 24 21.2419 24H20.3155H19.6314C19.0015 24 18.4913 23.4264 18.4913 22.7183V21.9492V19.8984C18.4913 19.3313 18.0837 18.873 17.5792 18.873H15.7549C15.2504 18.873 14.8428 19.3313 14.8428 19.8984V21.9492V22.7183C14.8428 23.4264 14.3326 24 13.7027 24H13.0186H12.1093C12.0666 24 12.0238 23.9968 11.9811 23.9936C11.9468 23.9968 11.9126 24 11.8784 24H11.4224C10.7925 24 10.2822 23.4264 10.2822 22.7183V19.1294C10.2822 19.1006 10.2822 19.0685 10.2851 19.0397V16.8094H9.37012C8.85706 16.8094 8.45801 16.3608 8.45801 15.7809C8.45801 15.4925 8.54352 15.2361 8.74304 15.0118L16.0514 7.8501C16.2509 7.62579 16.4789 7.59375 16.6784 7.59375C16.878 7.59375 17.106 7.65784 17.277 7.81805L24.5568 15.0118C24.7849 15.2361 24.8989 15.4925 24.8704 15.7809Z" fill="black"/>
</g>
<defs>
<clipPath id="clip0_100_5">
<rect width="24" height="24" fill="white"/>
</clipPath>
</defs>
</svg>
