<svg width="24" height="24" viewBox="0 0 24 24" fill="none" xmlns="http://www.w3.org/2000/svg">
<path d="M7.9125 0.0984375C7.80469 0.154688 7.69688 0.2625 7.64063 0.375C7.54688 0.553125 7.54688 0.642187 7.54688 4.45313C7.54688 8.26406 7.54688 8.35313 7.64063 8.53125C7.70156 8.65313 7.8 8.75156 7.92188 8.8125C8.1 8.90625 8.18906 8.90625 12 8.90625C15.8109 8.90625 15.9 8.90625 16.0781 8.8125C16.2 8.75156 16.2984 8.65313 16.3594 8.53125C16.4531 8.35313 16.4531 8.26406 16.4531 4.45313C16.4531 0.642187 16.4531 0.553125 16.3594 0.375C16.2984 0.253125 16.2 0.154688 16.0781 0.09375C15.9 0 15.8109 0 11.9906 0C8.19375 0.0046875 8.08125 0.0046875 7.9125 0.0984375Z" fill="black"/>
<path d="M11.2969 12.2344H7.33594C3.45469 12.2344 3.36562 12.2344 3.1875 12.3281C3.06562 12.3891 2.96719 12.4875 2.90625 12.6094C2.81719 12.7828 2.8125 12.8813 2.8125 14.1797V15.5625H4.21875V13.6406H11.2969V15.5625H12.7031V13.6406H19.7813V15.5625H21.1875V14.1797C21.1875 12.8813 21.1828 12.7828 21.0938 12.6094C21.0328 12.4875 20.9344 12.3891 20.8125 12.3281C20.6344 12.2344 20.5453 12.2344 16.6641 12.2344H12.7031V10.3125H11.2969V12.2344Z" fill="black" fill-opacity="0.3"/>
<path d="M0.365625 17.0672C0.257813 17.1234 0.15 17.2313 0.09375 17.3438C0.0046875 17.5219 0 17.6156 0 20.4844C0 23.3531 0.0046875 23.4469 0.09375 23.625C0.154688 23.7469 0.253125 23.8453 0.375 23.9062C0.553125 23.9953 0.646875 24 3.51563 24C6.38438 24 6.47813 23.9953 6.65625 23.9062C6.77813 23.8453 6.87656 23.7469 6.9375 23.625C7.02656 23.4469 7.03125 23.3531 7.03125 20.4844C7.03125 17.6156 7.02656 17.5219 6.9375 17.3438C6.87656 17.2219 6.77813 17.1234 6.65625 17.0625C6.47813 16.9734 6.38906 16.9688 3.50625 16.9688C0.646875 16.9734 0.534375 16.9781 0.365625 17.0672Z" fill="black"/>
<path d="M8.85 17.0672C8.74219 17.1234 8.63438 17.2313 8.57813 17.3438C8.48906 17.5219 8.48438 17.6156 8.48438 20.4844C8.48438 23.3531 8.48906 23.4469 8.57813 23.625C8.63906 23.7469 8.7375 23.8453 8.85938 23.9062C9.0375 23.9953 9.13125 24 12 24C14.8688 24 14.9625 23.9953 15.1406 23.9062C15.2625 23.8453 15.3609 23.7469 15.4219 23.625C15.5109 23.4469 15.5156 23.3531 15.5156 20.4844C15.5156 17.6156 15.5109 17.5219 15.4219 17.3438C15.3609 17.2219 15.2625 17.1234 15.1406 17.0625C14.9625 16.9734 14.8734 16.9687 11.9906 16.9687C9.13125 16.9734 9.01875 16.9781 8.85 17.0672Z" fill="black"/>
<path d="M17.3344 17.0672C17.2266 17.1234 17.1188 17.2313 17.0625 17.3438C16.9734 17.5219 16.9688 17.6156 16.9688 20.4844C16.9688 23.3531 16.9734 23.4469 17.0625 23.625C17.1234 23.7469 17.2219 23.8453 17.3438 23.9062C17.5219 23.9953 17.6156 24 20.4844 24C23.3531 24 23.4469 23.9953 23.625 23.9062C23.7469 23.8453 23.8453 23.7469 23.9063 23.625C23.9953 23.4469 24 23.3531 24 20.4844C24 17.6156 23.9953 17.5219 23.9063 17.3438C23.8453 17.2219 23.7469 17.1234 23.625 17.0625C23.4469 16.9734 23.3578 16.9687 20.475 16.9687C17.6156 16.9734 17.5031 16.9781 17.3344 17.0672Z" fill="black"/>
</svg>
